<?xml version="1.0" encoding="utf-8"?>
<!-- Generator: Adobe Illustrator 24.2.1, SVG Export Plug-In . SVG Version: 6.00 Build 0)  -->
<svg version="1.1" id="Icone_share" xmlns="http://www.w3.org/2000/svg" xmlns:xlink="http://www.w3.org/1999/xlink" x="0px"
	 y="0px" viewBox="0 0 24 24" style="enable-background:new 0 0 24 24;" xml:space="preserve">
<style type="text/css">
	.st0{fill:#104FBC;}
</style>
<path class="st0" d="M12,4c-4.4,0-8,3.6-8,8s3.6,8,8,8s8-3.6,8-8S16.4,4,12,4z M16,13h-3v3c0,0.6-0.4,1-1,1s-1-0.4-1-1v-3H8
	c-0.6,0-1-0.4-1-1s0.4-1,1-1h3V8c0-0.6,0.4-1,1-1s1,0.4,1,1v3h3c0.6,0,1,0.4,1,1S16.6,13,16,13z"/>
</svg>
