<?xml version="1.0" encoding="utf-8"?>
<!-- Generator: Adobe Illustrator 26.0.1, SVG Export Plug-In . SVG Version: 6.00 Build 0)  -->
<svg version="1.1" id="Arow_dropdown" xmlns="http://www.w3.org/2000/svg" xmlns:xlink="http://www.w3.org/1999/xlink" x="0px"
	 y="0px" viewBox="0 0 16 16" style="enable-background:new 0 0 16 16;" xml:space="preserve">
<style type="text/css">
	.st0{fill:#404D61;}
	.st1{fill:none;}
</style>
<path id="Icon_ionic-ios-arrow-down" class="st0" d="M8,9.2l3.8-4c0.3-0.3,0.7-0.3,1,0c0,0,0,0,0,0c0.3,0.3,0.3,0.8,0,1.1l-4.3,4.5
	c-0.3,0.3-0.7,0.3-1,0c0,0,0,0,0,0L3.2,6.3C2.9,6,2.9,5.5,3.2,5.2c0.3-0.3,0.7-0.3,1,0c0,0,0,0,0,0L8,9.2z"/>
<rect id="Rectangle_148078" class="st1" width="16" height="16"/>
</svg>
