<svg width="10" height="14.000000000000002" xmlns="http://www.w3.org/2000/svg" xml:space="preserve" version="1.1">

 <g>
  <title>Layer 1</title>
  <path id="svg_1" fill="#5900d3" d="m9.5,0l-9,0c-0.3,0 -0.5,0.2 -0.5,0.5l0,13c0,0.1 0,0.3 0.1,0.3c0.2,0.2 0.5,0.2 0.7,0l4.1,-3l4.2,3l0,0c0.1,0.1 0.2,0.1 0.3,0.1c0.3,0 0.5,-0.2 0.5,-0.5l0,-13c0.1,-0.2 -0.1,-0.4 -0.4,-0.4zm-2,7l-5,0c-0.3,0 -0.5,-0.2 -0.5,-0.5s0.2,-0.5 0.5,-0.5l5,0c0.3,0 0.5,0.2 0.5,0.5s-0.2,0.5 -0.5,0.5zm0,-3l-5,0c-0.3,0 -0.5,-0.2 -0.5,-0.5s0.2,-0.5 0.5,-0.5l5,0c0.3,0 0.5,0.2 0.5,0.5s-0.2,0.5 -0.5,0.5z" class="st0"/>
 </g>
</svg>