<svg width="10" height="14" xmlns="http://www.w3.org/2000/svg" version="1.1" xml:space="preserve">
 <g>
  <title>Layer 1</title>
  <g id="Group_162755">
   <path id="Union_8" class="st0" d="m9.1,13.8l-4.2,-3l-4.1,3c-0.2,0.2 -0.5,0.2 -0.7,0c-0.1,-0.1 -0.1,-0.2 -0.1,-0.3l0,-13c0,-0.3 0.2,-0.5 0.5,-0.5l9,0c0.3,0 0.5,0.2 0.5,0.5l0,13c0,0.3 -0.2,0.5 -0.5,0.5c-0.2,-0.1 -0.3,-0.1 -0.4,-0.2l0,0zm-3.9,-4l3.7,2.5l0,-11.4l-8,0l0,11.3l3.6,-2.5c0.2,-0.1 0.5,-0.1 0.7,0.1l0,0zm-2.8,-2.9c-0.3,0 -0.5,-0.2 -0.5,-0.5s0.2,-0.5 0.5,-0.5l5,0c0.3,0 0.5,0.2 0.5,0.5s-0.2,0.5 -0.5,0.5l-5,0zm0,-3c-0.3,0 -0.5,-0.2 -0.5,-0.5s0.2,-0.5 0.5,-0.5l5,0c0.3,0 0.5,0.2 0.5,0.5s-0.2,0.5 -0.5,0.5l-5,0z" fill="#4A4A4A"/>
  </g>
 </g>

</svg>