<?xml version="1.0" encoding="utf-8"?>
<!-- Generator: Adobe Illustrator 26.0.1, SVG Export Plug-In . SVG Version: 6.00 Build 0)  -->
<svg version="1.1" id="Layer_1" xmlns="http://www.w3.org/2000/svg" xmlns:xlink="http://www.w3.org/1999/xlink" x="0px" y="0px"
	 viewBox="0 0 24 24" style="enable-background:new 0 0 24 24;" xml:space="preserve">
<style type="text/css">
	.st0{fill:none;}
	.st1{fill:#404D61;}
</style>
<rect id="Rectangle_148046" class="st0" width="24" height="24"/>
<path id="calendar" class="st1" d="M19.4,6H17V4.5C17,4.2,16.8,4,16.5,4S16,4.2,16,4.5V6H9V4.5C9,4.2,8.8,4,8.6,4c0,0,0,0-0.1,0
	C8.2,4,8,4.2,8,4.4c0,0,0,0,0,0.1V6H5.6C4.7,6,4,6.6,4,7.5v11C4,19.4,4.7,20,5.6,20h13.8c0.9,0,1.6-0.6,1.6-1.5v-11
	C21,6.6,20.3,6,19.4,6z M20,18.5c0,0.3-0.3,0.5-0.6,0.5H5.6C5.3,19,5,18.8,5,18.5V11h15V18.5z M5,10V7.5C5,7.2,5.3,7,5.6,7H8v1.5
	C8,8.8,8.2,9,8.4,9c0,0,0,0,0.1,0C8.8,9,9,8.8,9,8.6c0,0,0,0,0-0.1V7h7v1.5C16,8.8,16.2,9,16.5,9S17,8.8,17,8.5V7h2.4
	C19.7,7,20,7.2,20,7.5V10H5z M16,13.5c0-0.3,0.2-0.5,0.4-0.5c0,0,0,0,0.1,0h2c0.3,0,0.5,0.2,0.5,0.5S18.8,14,18.5,14h-2
	C16.2,14,16,13.8,16,13.5C16,13.5,16,13.5,16,13.5z M16,16.5c0-0.3,0.2-0.5,0.4-0.5c0,0,0,0,0.1,0h2c0.3,0,0.5,0.2,0.5,0.5
	S18.8,17,18.5,17h-2C16.2,17,16,16.8,16,16.5C16,16.5,16,16.5,16,16.5z M11,13.5c0-0.3,0.2-0.5,0.4-0.5c0,0,0,0,0.1,0h2
	c0.3,0,0.5,0.2,0.5,0.5S13.8,14,13.5,14h-2C11.2,14,11,13.8,11,13.5C11,13.5,11,13.5,11,13.5z M11,16.5c0-0.3,0.2-0.5,0.4-0.5
	c0,0,0,0,0.1,0h2c0.3,0,0.5,0.2,0.5,0.5S13.8,17,13.5,17h-2C11.2,17,11,16.8,11,16.5C11,16.5,11,16.5,11,16.5z M6,13.5
	C6,13.2,6.2,13,6.4,13c0,0,0,0,0.1,0h2C8.8,13,9,13.2,9,13.5S8.8,14,8.5,14h-2C6.2,14,6,13.8,6,13.5C6,13.5,6,13.5,6,13.5z M6,16.5
	C6,16.2,6.2,16,6.4,16c0,0,0,0,0.1,0h2C8.8,16,9,16.2,9,16.5S8.8,17,8.5,17h-2C6.2,17,6,16.8,6,16.5C6,16.5,6,16.5,6,16.5z"/>
</svg>
