<?xml version="1.0" encoding="utf-8"?>
<!-- Generator: Adobe Illustrator 24.2.1, SVG Export Plug-In . SVG Version: 6.00 Build 0)  -->
<svg version="1.1" id="Icone_share" xmlns="http://www.w3.org/2000/svg" xmlns:xlink="http://www.w3.org/1999/xlink" x="0px"
	 y="0px" viewBox="0 0 24 24" style="enable-background:new 0 0 24 24;" xml:space="preserve">
<style type="text/css">
	.st0{fill:#F6F7FC;}
</style>
<g id="noun_change_1596887" transform="translate(-7 -15.501)">
	<path id="Path_148228" class="st0" d="M24.1,30.6h-1.7c-0.2,0-0.4,0-0.6-0.1c-0.3-0.1-0.7-0.2-1-0.4c-0.3-0.1-0.5-0.3-0.8-0.6
		c-0.4-0.4-1.1-1.1-1.7-1.8c0.7-0.7,1.3-1.3,1.7-1.8c0.3-0.3,0.7-0.5,1.1-0.7c0.2-0.1,0.4-0.2,0.7-0.2c0.2,0,0.4-0.1,0.6-0.1h1.7
		v2.3l3.9-3l-3.9-3v2.3h-1.7c-0.3,0-0.6,0-0.9,0.1c-0.4,0.1-0.9,0.3-1.3,0.5c-0.4,0.2-0.8,0.5-1.1,0.8c-0.4,0.4-1,1.1-1.7,1.7
		c-0.7-0.7-1.4-1.5-1.9-1.9c-0.4-0.4-0.9-0.8-1.5-1c-0.3-0.1-0.6-0.2-0.9-0.3c-0.3-0.1-0.6-0.1-0.9-0.1H12v1.3h0.4
		c0.2,0,0.4,0,0.6,0.1c0.3,0.1,0.7,0.2,1,0.4c0.3,0.1,0.5,0.3,0.8,0.6c0.5,0.5,1.2,1.2,1.9,2c-0.7,0.8-1.4,1.5-1.9,2
		c-0.3,0.3-0.7,0.5-1.1,0.7c-0.2,0.1-0.4,0.2-0.7,0.2c-0.2,0-0.4,0.1-0.6,0.1H12v1.3h0.4c0.3,0,0.6,0,0.9-0.1
		c0.4-0.1,0.9-0.3,1.3-0.5c0.4-0.2,0.8-0.5,1.1-0.8c0.5-0.5,1.2-1.2,1.9-1.9c0.7,0.7,1.3,1.3,1.7,1.7c0.4,0.4,0.9,0.8,1.5,1
		c0.3,0.1,0.6,0.2,0.9,0.3c0.3,0.1,0.6,0.1,0.9,0.1h1.7v2.3l3.9-3l-3.9-3V30.6z"/>
</g>
</svg>
