<svg width="15" height="15" xmlns="http://www.w3.org/2000/svg" xml:space="preserve" version="1.1">

 <g>
  <title>Layer 1</title>
  <path id="svg_1" fill="#4A4A4A" d="m14,2.31521l-1.3,0l-2.1,0c-0.1,-0.5 -0.2,-0.9 -0.5,-1.3c-0.6,-0.7 -1.5,-1.1 -2.4,-1c0,0 0,0 -0.1,0c-0.9,0 -1.7,0.3 -2.4,0.9c-0.5,0.4 -0.7,0.9 -0.8,1.4l-2.2,0l-1.2,0c-0.3,0 -0.5,0.2 -0.5,0.5s0.2,0.5 0.5,0.5l0.8,0l0.8,11.4c0,0.3 0.2,0.5 0.5,0.5l8.5,0c0.3,0 0.5,-0.2 0.5,-0.5l1.1,-11.4l0.8,0c0.3,0 0.5,-0.2 0.5,-0.5s-0.2,-0.5 -0.5,-0.5zm-8.2,-0.8c0.5,-0.4 1,-0.6 1.6,-0.6l0,0c0.6,0 1.3,0.2 1.7,0.7c0.3,0.2 0.4,0.5 0.4,0.7l-4,0c0,-0.3 0.1,-0.5 0.3,-0.8zm5.3,12.7l-7.6,0l-0.7,-10.9l9.4,0l-1.1,10.9zm-2.6,-1.5l0,-7c0,-0.3 0.2,-0.5 0.5,-0.5s0.5,0.2 0.5,0.5l0,7c0,0.3 -0.2,0.5 -0.5,0.5s-0.5,-0.2 -0.5,-0.5zm-3,0l0,-7c0,-0.3 0.2,-0.5 0.5,-0.5s0.5,0.2 0.5,0.5l0,7c0,0.3 -0.2,0.5 -0.5,0.5s-0.5,-0.2 -0.5,-0.5z" class="st0"/>
 </g>
</svg>