<?xml version="1.0" encoding="utf-8"?>
<!-- Generator: Adobe Illustrator 26.0.3, SVG Export Plug-In . SVG Version: 6.00 Build 0)  -->
<svg version="1.1" id="Filters_Settings" xmlns="http://www.w3.org/2000/svg" xmlns:xlink="http://www.w3.org/1999/xlink" x="0px"
	 y="0px" viewBox="0 0 20 20" style="enable-background:new 0 0 20 20;" xml:space="preserve">
<style type="text/css">
	.st0{fill:#5900D3;}
</style>
<path class="st0" d="M10,14.1l1,0.8V17h-0.4H10H7.3C7.1,17,7,16.9,7,16.7v-2c-0.2-0.1-0.4-0.1-0.6-0.2L5,15.9
	c-0.1,0.1-0.3,0.1-0.4,0l-2.4-2.4C2,13.3,2,13.1,2.1,13l1.4-1.4c-0.1-0.2-0.1-0.4-0.2-0.6h-2C1.1,11,1,10.9,1,10.7V7.3
	C1,7.1,1.1,7,1.3,7h2c0.1-0.2,0.1-0.4,0.2-0.6L2.1,5C2,4.9,2,4.7,2.1,4.5l2.4-2.4C4.7,2,4.9,2,5,2.1l1.4,1.4c0.2,0,0.4-0.1,0.6-0.2
	v-2C7,1.1,7.1,1,7.3,1h3.4C10.9,1,11,1.1,11,1.3v2c0.2,0.1,0.4,0.2,0.6,0.2L13,2.1c0.1-0.1,0.3-0.1,0.4,0l2.4,2.4
	C16,4.7,16,4.9,15.9,5l-1.4,1.4c0,0.1,0.2,0.5,0.2,0.6h2C16.9,7,17,7.1,17,7.3v3.4c0,0.2-0.2,0.3-0.3,0.3h-3.1l0.4-1h2V8h-2
	l-0.7-1.8l1.4-1.4l-1.4-1.4l-1.4,1.4L10,4V2H8v2L6.2,4.8L4.8,3.3L3.3,4.8l1.4,1.4L4,8H2v2h2l0.7,1.8l-1.4,1.4l1.4,1.4l1.4-1.4L8,14
	v2.1h2V14.1z M12,9c0,1.7-1.3,3-3,3s-3-1.3-3-3s1.3-3,3-3S12,7.3,12,9z M11,9c0-1.1-0.9-2-2-2S7,7.9,7,9c0,1.1,0.9,2,2,2
	S11,10.1,11,9z M18.7,13.7l-1.7,2v2.8c0,0.3-0.2,0.5-0.5,0.5h-2.9c-0.3,0-0.6-0.2-0.6-0.5v-2.8l-1.7-2C10.7,13.2,11.1,12,12,12h6
	C19,12,19.3,13.1,18.7,13.7z M18,13h-6l1.8,2.1c0.2,0.2,0.2,0.3,0.2,0.5v2.5h2v-2.5c0-0.2,0.1-0.3,0.2-0.4L18,13z"/>
</svg>
