<svg width="23.999999999999996" height="23.999999999999996" xmlns="http://www.w3.org/2000/svg" xml:space="preserve" version="1.1">

 <g>
  <title>Layer 1</title>
  <path id="svg_1" fill="none" d="m9.3,19c-0.2,0 -0.3,-0.1 -0.3,-0.3l0,0l0,-2c-0.2,-0.1 -0.4,-0.2 -0.6,-0.2l-1.4,1.4c-0.1,0.1 -0.3,0.1 -0.4,0l0,0l-2.4,-2.4c-0.2,-0.2 -0.2,-0.3 -0.1,-0.5l0,0l1.4,-1.4c-0.1,-0.2 -0.2,-0.4 -0.2,-0.6l-2,0c-0.2,0 -0.3,-0.1 -0.3,-0.3l0,0l0,-3.4c0,-0.2 0.1,-0.3 0.3,-0.3l0,0l2,0c0.1,-0.2 0.2,-0.4 0.2,-0.6l-1.4,-1.4c-0.1,-0.1 -0.1,-0.3 0,-0.5l0,0l2.4,-2.4c0.2,-0.1 0.3,-0.1 0.5,0l0,0l1.4,1.4c0.2,0 0.4,-0.1 0.6,-0.2l0,-2c0,-0.2 0.1,-0.3 0.3,-0.3l0,0l3.4,0c0.2,0 0.3,0.1 0.3,0.3l0,0l0,2c0.2,0.1 0.4,0.2 0.6,0.2l1.4,-1.4c0.1,-0.1 0.3,-0.1 0.4,0l0,0l2.4,2.4c0.2,0.2 0.2,0.3 0.1,0.5l0,0l-1.4,1.4c0.1,0.2 0.2,0.4 0.2,0.6l2,0c0.2,0 0.3,0.1 0.3,0.3l0,0l0,3.4c0,0.2 -0.1,0.3 -0.3,0.3l0,0l-2,0c-0.1,0.2 -0.2,0.4 -0.2,0.6l1.4,1.4c0.1,0.1 0.1,0.3 0,0.4l0,0l-2.4,2.4c-0.1,0.1 -0.3,0.1 -0.4,0l0,0l-1.4,-1.4c-0.2,0.1 -0.4,0.2 -0.6,0.2l0,2c0,0.2 -0.1,0.3 -0.3,0.3l0,0l-3.5,0.1l0,0z" class="st0"/>
  <path id="svg_2" fill="#000000" d="m13.6,16.1l7,0c0.3,0 0.4,0.2 0.4,0.4l0,0c0,0.3 -0.2,0.5 -0.5,0.5l-7,0c-0.3,0 -0.5,-0.2 -0.5,-0.5l0,0c0,-0.3 0.3,-0.4 0.6,-0.4zm0.9,2l5,0c0.3,0 0.5,0.2 0.5,0.4l0,0c0,0.3 -0.2,0.5 -0.5,0.5l-5,0c-0.3,0 -0.5,-0.2 -0.5,-0.5l0,0c0,-0.3 0.2,-0.4 0.5,-0.4zm0.9,2l3,0c0.3,0 0.6,0.2 0.6,0.4l0,0c0,0.3 -0.2,0.5 -0.5,0.5l-3,0c-0.3,0 -0.5,-0.2 -0.5,-0.5l0,0c0,-0.3 0.2,-0.4 0.4,-0.4zm-4.4,-6.1c-1.7,0 -3,-1.3 -3,-3s1.3,-3 3,-3s3,1.3 3,3s-1.3,3 -3,3zm0,-5c-1.1,0 -2,0.9 -2,2s0.9,2 2,2s2,-0.9 2,-2s-0.9,-2 -2,-2zm7.7,0l-2,0c0,-0.1 -0.1,-0.2 -0.1,-0.3c0,-0.1 -0.1,-0.2 -0.1,-0.3l1.4,-1.4c0.1,-0.1 0.1,-0.3 -0.1,-0.5l-2.4,-2.4c-0.1,-0.1 -0.3,-0.1 -0.4,0l-1.4,1.4c-0.2,0 -0.4,-0.1 -0.6,-0.2l0,-2c0,-0.2 -0.1,-0.3 -0.3,-0.3l-3.4,0c-0.2,0 -0.3,0.1 -0.3,0.3l0,2c-0.2,0.1 -0.4,0.2 -0.6,0.2l-1.4,-1.4c-0.1,-0.1 -0.3,-0.1 -0.5,0l-2.4,2.4c-0.1,0.2 -0.1,0.4 0,0.5l1.4,1.4c-0.1,0.2 -0.1,0.4 -0.2,0.6l-2,0c-0.2,0 -0.3,0.1 -0.3,0.3l0,3.4c0,0.2 0.1,0.3 0.3,0.3l2,0c0.1,0.2 0.1,0.4 0.2,0.6l-1.4,1.4c-0.1,0.1 -0.1,0.3 0.1,0.5l2.4,2.4c0.1,0.1 0.3,0.1 0.4,0l1.4,-1.4c0.2,0.1 0.4,0.1 0.6,0.2l0,2c0,0.2 0.1,0.3 0.3,0.3l2.7,0l0,-0.9l-2,0l0,-2.1l-1.9,-0.8l-1.4,1.4l-1.4,-1.4l1.4,-1.4l-0.7,-1.8l-2,0l0,-2l2,0l0.7,-1.8l-1.4,-1.4l1.5,-1.5l1.4,1.5l1.8,-0.8l0,-2l2,0l0,2l1.9,0.8l1.4,-1.4l1.4,1.4l-1.4,1.4l0.7,1.8l2,0l0,2l-2,0l-0.8,1.9l0.2,0.1l1.6,0l-0.5,-0.4c0.1,-0.2 0.1,-0.4 0.2,-0.6l2,0c0.2,0 0.3,-0.1 0.3,-0.3l0,-3.4c0,-0.2 -0.1,-0.3 -0.3,-0.3z" class="st1"/>
 </g>
</svg>