<?xml version="1.0" encoding="utf-8"?>
<!-- Generator: Adobe Illustrator 24.2.1, SVG Export Plug-In . SVG Version: 6.00 Build 0)  -->
<svg version="1.1" id="Layer_1" xmlns="http://www.w3.org/2000/svg" xmlns:xlink="http://www.w3.org/1999/xlink" x="0px" y="0px"
	 viewBox="0 0 24 24" style="enable-background:new 0 0 24 24;" xml:space="preserve">
<style type="text/css">
	.st0{fill:#404D61;}
</style>
<path class="st0" d="M7.2,9.2H5.4l0.2-1h1.8l0.3-1.3c0.6-2.9,2.8-3.4,4.9-2.5l-0.4,0.9C10.8,4.7,9.4,4.8,9,6.8L8.7,8.2h2.8l-0.2,1
	H8.5l-1.6,7.6c-0.5,2.4-1.6,3.5-3.9,3.1l0.2-1c1.6,0.3,2.1-0.6,2.4-2.1L7.2,9.2z M11.4,19.8C10.5,18.6,10,17,10,15.4
	c0-1.6,0.5-3.2,1.4-4.4l0.5,0.3c-0.6,1.3-1,2.4-1,4.1c0,1.7,0.4,2.8,1,4.1L11.4,19.8z M17.4,19.5c0.6-1.3,1-2.4,1-4.1
	c0-1.7-0.4-2.8-1-4.1l0.5-0.3c0.9,1.2,1.4,2.8,1.4,4.4c0,1.6-0.5,3.2-1.4,4.4L17.4,19.5z M15.8,17.8l-1.5-2l-1.4,2H12l1.8-2.5
	L12.1,13H13l1.3,1.8l1.3-1.8h0.9l-1.8,2.3l1.9,2.5H15.8z"/>
</svg>
