<?xml version="1.0" encoding="utf-8"?>
<!-- Generator: Adobe Illustrator 26.0.3, SVG Export Plug-In . SVG Version: 6.00 Build 0)  -->
<svg version="1.1" id="Layer_1" xmlns="http://www.w3.org/2000/svg" xmlns:xlink="http://www.w3.org/1999/xlink" x="0px" y="0px"
	 viewBox="0 0 26 14" style="enable-background:new 0 0 26 14;" xml:space="preserve">
<style type="text/css">
	.st0{fill:#1268FB;}
</style>
<path class="st0" d="M19,1H7C3.7,1,1,3.7,1,7s2.7,6,6,6h12c3.3,0,6-2.7,6-6S22.3,1,19,1z M9,8C8.4,8,8,7.6,8,7s0.4-1,1-1s1,0.4,1,1
	S9.6,8,9,8z M13,8c-0.6,0-1-0.4-1-1s0.4-1,1-1s1,0.4,1,1S13.6,8,13,8z M17,8c-0.6,0-1-0.4-1-1s0.4-1,1-1s1,0.4,1,1S17.6,8,17,8z"/>
</svg>
