<svg width="11" height="14" xmlns="http://www.w3.org/2000/svg" xml:space="preserve" version="1.1">

 <g>
  <title>Layer 1</title>
  <path id="svg_1" fill="#AFAFAF" d="m5.51411,12.11316l1.7,-2.6l-3.4,0l1.7,2.6m0,1.9c-0.3,0 -0.6,-0.1 -0.8,-0.4l-2.6,-4c-0.3,-0.7 0,-1.6 0.8,-1.6l5.1,0c0.8,0 1.2,0.9 0.8,1.6l-2.6,4c-0.1,0.3 -0.4,0.4 -0.7,0.4zm0,-12.1l-1.7,2.5l3.4,0l-1.7,-2.5m0,-1.9c0.3,0 0.6,0.1 0.8,0.4l2.6,4c0.4,0.7 0,1.6 -0.8,1.6l-5.1,0c-0.8,0 -1.3,-0.9 -0.8,-1.6l2.6,-4c0.1,-0.3 0.4,-0.4 0.7,-0.4z" class="st0"/>
  <path id="Rectangle_148077" d="m12.5,12.30263l16,0l0,16l-16,0l0,-16z" opacity="undefined" fill="none"/>
 </g>
</svg>