<?xml version="1.0" encoding="utf-8"?>
<!-- Generator: Adobe Illustrator 24.2.1, SVG Export Plug-In . SVG Version: 6.00 Build 0)  -->
<svg version="1.1" id="Layer_1" xmlns="http://www.w3.org/2000/svg" xmlns:xlink="http://www.w3.org/1999/xlink" x="0px" y="0px"
	 viewBox="0 0 20 20" style="enable-background:new 0 0 20 20;" xml:space="preserve">
<style type="text/css">
	.st0{fill:#050709;}
</style>
<path id="Icon_material-attach-file" class="st0" d="M13.1,4v10c0,1.2-1.1,3.2-3.1,3.2c-2,0-3.1-2-3.1-3.2V4.2
	c0-0.8,1.1-1.3,2.3-1.3c0.8,0,1.9,0.6,1.9,1.3v9.4c0,0.3-0.8,0.5-1.1,0.5s-1-0.2-1-0.5V5.2H8v8.4c0,0.8,1.3,1.4,2,1.4
	c0.8,0,1.9-0.6,1.9-1.3c0,0,0,0,0-0.1V4.2C12,3,11,2,9.1,2C7,2,6,3,6,4.2V14c0,1.7,1.4,4,4,4c2.9,0,3.9-2.2,3.9-3.9V4H13.1z"/>
</svg>
