<?xml version="1.0" encoding="utf-8"?>
<!-- Generator: Adobe Illustrator 26.0.0, SVG Export Plug-In . SVG Version: 6.00 Build 0)  -->
<svg version="1.1" id="Component_91_1" xmlns="http://www.w3.org/2000/svg" xmlns:xlink="http://www.w3.org/1999/xlink" x="0px"
	 y="0px" viewBox="0 0 18 18" style="enable-background:new 0 0 18 18;" xml:space="preserve">
<style type="text/css">
	.st0{fill:#797E8D;}
</style>
<path id="Path_148202" class="st0" d="M36.3,1.6c-2.5-2.4-6.4-2.4-8.9,0C25,4.1,25,8,27.4,10.5c0,0,0,0,0,0c2.2,2.2,5.6,2.4,8,0.6
	v0.1l4.4,4.4c0.4,0.4,1.1,0.4,1.5,0c0.4-0.4,0.4-1,0-1.4l-4.4-4.4h-0.1C38.7,7.3,38.5,3.8,36.3,1.6z M34.8,9
	c-1.7,1.6-4.3,1.6-5.9-0.1c-1.6-1.6-1.6-4.2,0-5.9c1.6-1.6,4.2-1.7,5.9-0.1c0,0,0,0,0.1,0.1C36.4,4.7,36.4,7.4,34.8,9z"/>
<path class="st0" d="M16.7,15.3l-4.8-4.8C12.6,9.5,13,8.3,13,7c0-3.3-2.7-6-6-6C3.7,1,1,3.7,1,7s2.7,6,6,6c1.3,0,2.5-0.4,3.5-1.1
	l4.8,4.8c0.4,0.4,1,0.4,1.4,0l0,0C17.1,16.3,17.1,15.7,16.7,15.3z M7,11c-2.2,0-4-1.8-4-4s1.8-4,4-4c2.2,0,4,1.8,4,4S9.2,11,7,11z"
	/>
</svg>
