<?xml version="1.0" encoding="utf-8"?>
<!-- Generator: Adobe Illustrator 26.0.1, SVG Export Plug-In . SVG Version: 6.00 Build 0)  -->
<svg version="1.1" id="Layer_1" xmlns="http://www.w3.org/2000/svg" xmlns:xlink="http://www.w3.org/1999/xlink" x="0px" y="0px"
	 viewBox="0 0 40 40" style="enable-background:new 0 0 40 40;" xml:space="preserve">
<style type="text/css">
	.st0{fill:none;}
	.st1{fill:none;stroke:#404D61;}
	.st2{fill:#404D61;}
</style>
<g id="Group_161957" transform="translate(-168 -3537)">
	<rect id="Rectangle_147981" x="168" y="3537" class="st0" width="40" height="40"/>
	<g id="Group_161956">
		<path class="st0" d="M179,3543h11.6c0,0,8.5,8.2,8.4,8.2v17.8c0,1.1-0.9,2-2,2h-18c-1.1,0-2-0.9-2-2v-24
			C177,3543.9,177.9,3543,179,3543z"/>
		<g id="Group_161955" transform="translate(-131 395.215)">
			<polygon class="st1" points="319,3167.3 319,3160.3 319,3160.3 			"/>
			<g>
				<path class="st2" d="M314,3170.3c0,0.3,0.2,0.5,0.5,0.5l0,0h9l0,0h0c0.3,0,0.5-0.2,0.5-0.5s-0.2-0.5-0.5-0.5h-9
					C314.2,3169.8,314,3170,314,3170.3z"/>
				<path class="st2" d="M321.6,3147.8C321.6,3147.8,321.6,3147.8,321.6,3147.8l-11.6,0c-1.1,0-2,0.9-2,2v24c0,1.1,0.9,2,2,2h18
					c1.1,0,2-0.9,2-2V3156C330,3156,321.6,3147.8,321.6,3147.8z M322,3149.5c1.7,1.7,4.9,4.7,6.4,6.2H322V3149.5z M329,3173.8
					c0,0.6-0.4,1-1,1h-18c-0.6,0-1-0.4-1-1v-24c0-0.6,0.4-1,1-1l11,0v7.5c0,0.3,0.2,0.5,0.5,0.5h7.5V3173.8z"/>
				<path class="st2" d="M318.6,3159.5l-2.5,3c-0.2,0.2-0.1,0.5,0.1,0.7c0.2,0.2,0.5,0.1,0.7-0.1l1.6-1.9v6.1c0,0.3,0.2,0.5,0.5,0.5
					s0.5-0.2,0.5-0.5v-6.1l1.6,1.9c0.1,0.1,0.2,0.2,0.4,0.2c0.1,0,0.2,0,0.3-0.1c0.2-0.2,0.2-0.5,0.1-0.7l-2.5-3
					C319.2,3159.2,318.8,3159.2,318.6,3159.5z"/>
			</g>
		</g>
	</g>
</g>
</svg>
