<?xml version="1.0" encoding="utf-8"?>
<!-- Generator: Adobe Illustrator 24.2.1, SVG Export Plug-In . SVG Version: 6.00 Build 0)  -->
<svg version="1.1" id="Layer_1" xmlns="http://www.w3.org/2000/svg" xmlns:xlink="http://www.w3.org/1999/xlink" x="0px" y="0px"
	 viewBox="0 0 16 16" style="enable-background:new 0 0 16 16;" xml:space="preserve">
<style type="text/css">
	.st0{fill:#1268FB;}
	.st1{fill:#FFFFFF;}
</style>
<g>
	<path class="st0" d="M2,15.5c-0.8,0-1.5-0.7-1.5-1.5V2c0-0.8,0.7-1.5,1.5-1.5h12c0.8,0,1.5,0.7,1.5,1.5v12c0,0.8-0.7,1.5-1.5,1.5H2
		z"/>
	<path class="st0" d="M14,1c0.6,0,1,0.4,1,1v12c0,0.6-0.4,1-1,1H2c-0.6,0-1-0.4-1-1V2c0-0.6,0.4-1,1-1H14 M14,0H2C0.9,0,0,0.9,0,2
		v12c0,1.1,0.9,2,2,2h12c1.1,0,2-0.9,2-2V2C16,0.9,15.1,0,14,0L14,0z"/>
</g>
<g id="Path_4820">
	<path class="st1" d="M7.3,11.3L4.6,8.5C4.4,8.3,4.5,8,4.7,7.8c0.2-0.2,0.5-0.2,0.7,0l2,2.1l4.3-4.3c0.2-0.2,0.5-0.2,0.7,0
		s0.2,0.5,0,0.7L7.3,11.3z"/>
</g>
</svg>
