<svg id="edit-con_copy" data-name="edit-con copy" xmlns="http://www.w3.org/2000/svg" width="13.434" height="13.5" viewBox="0 0 13.434 13.5">
  <g id="Group_162072" data-name="Group 162072" transform="translate(-1001.859 -764.148)">
    <g id="Path_148204" data-name="Path 148204" transform="translate(-4576 118.588)" fill="none" stroke-linecap="round" stroke-linejoin="round">
      <path d="M5588.859,650.579l-8.507,8.48h-2.493v-2.527l8.475-8.473Z" stroke="none"/>
      <path d="M 5586.33447265625 649.4724731445312 L 5578.859375 656.9459838867188 L 5578.859375 658.0591430664062 L 5579.939453125 658.0591430664062 L 5587.443359375 650.5785522460938 L 5586.33447265625 649.4724731445312 M 5586.333984375 648.0591430664062 L 5588.859375 650.578857421875 L 5580.3525390625 659.0591430664062 L 5577.859375 659.0591430664062 L 5577.859375 656.5316772460938 L 5586.333984375 648.0591430664062 Z" stroke="none" fill="#FFF"/>
    </g>
    <path id="Rectangle_148056" data-name="Rectangle 148056" d="M1,0H2.5a1,1,0,0,1,1,1V2.5a0,0,0,0,1,0,0H0a0,0,0,0,1,0,0V1A1,1,0,0,1,1,0Z" transform="translate(1012.818 764.148) rotate(45)" fill="#FFF"/>
  </g>
</svg>
