<?xml version="1.0" encoding="utf-8"?>
<!-- Generator: Adobe Illustrator 24.2.1, SVG Export Plug-In . SVG Version: 6.00 Build 0)  -->
<svg version="1.1" id="Layer_1" xmlns="http://www.w3.org/2000/svg" xmlns:xlink="http://www.w3.org/1999/xlink" x="0px" y="0px"
	 viewBox="0 0 16 16" style="enable-background:new 0 0 16 16;" xml:space="preserve">
<style type="text/css">
	.st0{fill:#9E83EA;}
	.st1{fill:#FFFFFF;}
</style>
<path id="Rectangle_147778" class="st0" d="M4,2h8c1.1,0,2,0.9,2,2v8c0,1.1-0.9,2-2,2H4c-1.1,0-2-0.9-2-2V4C2,2.9,2.9,2,4,2z"/>
<path id="Rectangle_147779" class="st1" d="M5,7h6c0.6,0,1,0.4,1,1l0,0c0,0.6-0.4,1-1,1H5C4.4,9,4,8.6,4,8l0,0C4,7.4,4.4,7,5,7z"/>
</svg>
