<?xml version="1.0" encoding="utf-8"?>
<!-- Generator: Adobe Illustrator 26.0.0, SVG Export Plug-In . SVG Version: 6.00 Build 0)  -->
<svg version="1.1" id="Icon_Replace_Image" xmlns="http://www.w3.org/2000/svg" xmlns:xlink="http://www.w3.org/1999/xlink" x="0px"
	 y="0px" viewBox="0 0 18 18" style="enable-background:new 0 0 18 18;" xml:space="preserve">
<style type="text/css">
	.st0{fill:none;}
	.st1{fill:#1268FB;}
</style>
<rect id="Rectangle_148057" x="1" y="1" class="st0" width="16" height="16"/>
<path class="st1" d="M2,11v-0.3l2.8-2.8l1.8,1.8c0.2,0.2,0.5,0.2,0.7,0L12,4.6v2.8l1,0.1V3c0-1.1-0.9-2-2-2H3C1.9,1,1,1.9,1,3v8
	c0,1.1,0.9,2,2,2h5v-1H3C2.4,12,2,11.6,2,11z M3,2h8c0.6,0,1,0.4,1,1v0.1L6.9,8.6L5.1,6.8C5,6.7,4.9,6.7,4.8,6.7
	c-0.1,0-0.3,0.1-0.4,0.2L2,9.3V3C2,2.4,2.4,2,3,2z M5.5,6C6.3,6,7,5.3,7,4.5S6.3,3,5.5,3S4,3.7,4,4.5S4.7,6,5.5,6z M5.5,4
	C5.8,4,6,4.2,6,4.5S5.8,5,5.5,5S5,4.8,5,4.5S5.2,4,5.5,4z M16.6,14.3c-0.2,0.5-0.6,0.9-1,1.3c-0.7,0.7-1.7,1-2.7,1
	c-0.7,0-1.4-0.2-2-0.6L10.4,17c0,0-0.1,0-0.1,0c0,0-0.1,0-0.1-0.1l-1-2.4c0-0.1,0-0.1,0-0.2c0,0,0.1-0.1,0.1-0.1l2.5-0.2
	c0,0,0.1,0,0.1,0c0,0,0,0.1,0,0.1l-0.5,0.9c0.4,0.3,1,0.4,1.5,0.4c0.6,0,1.2-0.2,1.7-0.6c0.4-0.3,0.6-0.6,0.8-1
	c0.3-0.5,0.4-1,0.4-1.5l1.1-0.1C17,13.1,16.9,13.7,16.6,14.3z M10.1,12.4L9,12.6l0,0c0-0.6,0.1-1.3,0.4-1.9c0.2-0.5,0.5-0.9,1-1.3
	c0.7-0.7,1.7-1,2.7-1c0.7,0,1.4,0.2,2,0.6l0.5-0.9c0,0,0-0.1,0.1-0.1c0,0,0,0,0,0c0,0,0.1,0,0.1,0.1l1,2.3c0,0.1,0,0.1,0,0.2
	c0,0-0.1,0.1-0.1,0.1L14,10.9c0,0-0.1,0-0.1,0c0,0,0-0.1,0-0.1l0.5-0.9c-0.4-0.3-1-0.4-1.5-0.4c-0.6,0-1.2,0.2-1.7,0.6
	c-0.4,0.3-0.6,0.6-0.8,1C10.2,11.4,10.1,11.9,10.1,12.4z"/>
</svg>
