<?xml version="1.0" encoding="utf-8"?>
<!-- Generator: Adobe Illustrator 24.2.1, SVG Export Plug-In . SVG Version: 6.00 Build 0)  -->
<svg version="1.1" id="Layer_1" xmlns="http://www.w3.org/2000/svg" xmlns:xlink="http://www.w3.org/1999/xlink" x="0px" y="0px"
	 viewBox="0 0 20 20" style="enable-background:new 0 0 20 20;" xml:space="preserve">
<style type="text/css">
	.st0{fill:#69AEFF;}
	.st1{fill:#FFFFFF;}
	.st2{fill:#1580FC;}
	.st3{fill:#4A4A4A;}
</style>
<path d="M12,12.5c0,0.8-0.7,1.5-1.5,1.5S9,13.3,9,12.5S9.7,11,10.5,11S12,11.7,12,12.5z M16,9V16c0,0.5-0.4,1-1,1H6
	c-0.5,0-1-0.4-1-1V9c0-0.5,0.4-1,1-1h1V6.5C7,4.6,8.6,3,10.5,3S14,4.6,14,6.5V8h1C15.6,8,16,8.4,16,9z M8,8h5V6.5
	C13,5.1,11.9,4,10.5,4S8,5.1,8,6.5V8z M15,9h-1.1H13H8H7.1H6v7h9V9z"/>
</svg>
