<?xml version="1.0" encoding="utf-8"?>
<!-- Generator: Adobe Illustrator 26.0.1, SVG Export Plug-In . SVG Version: 6.00 Build 0)  -->
<svg version="1.1" id="Layer_1" xmlns="http://www.w3.org/2000/svg" xmlns:xlink="http://www.w3.org/1999/xlink" x="0px" y="0px"
	 viewBox="0 0 24 24" style="enable-background:new 0 0 24 24;" xml:space="preserve">
<style type="text/css">
	.st0{fill:none;}
	.st1{fill:#404D61;}
</style>
<rect id="Rectangle_148047" class="st0" width="24" height="24"/>
<path class="st1" d="M19,5.5v4c0,0.3-0.2,0.5-0.5,0.5S18,9.8,18,9.5V6.7l-6.4,6.4c-0.2,0.2-0.5,0.2-0.7,0s-0.2-0.5,0-0.7L17.3,6
	h-2.8C14.2,6,14,5.8,14,5.5C14,5.2,14.2,5,14.5,5h4C18.8,5,19,5.2,19,5.5z M17.5,11c-0.3,0-0.5,0.2-0.5,0.5V17c0,0.6-0.4,1-1,1H7
	c-0.6,0-1-0.4-1-1V8c0-0.6,0.4-1,1-1h5.5C12.8,7,13,6.8,13,6.5S12.8,6,12.5,6H7C5.9,6,5,6.9,5,8v9c0,1.1,0.9,2,2,2h9
	c1.1,0,2-0.9,2-2v-5.5C18,11.2,17.8,11,17.5,11z"/>
</svg>
