<?xml version="1.0" encoding="utf-8"?>
<!-- Generator: Adobe Illustrator 26.0.0, SVG Export Plug-In . SVG Version: 6.00 Build 0)  -->
<svg version="1.1" id="Icon_Reast_color_" xmlns="http://www.w3.org/2000/svg" xmlns:xlink="http://www.w3.org/1999/xlink" x="0px"
	 y="0px" viewBox="0 0 24 24" style="enable-background:new 0 0 24 24;" xml:space="preserve">
<style type="text/css">
	.st0{fill:none;}
	.st1{fill:#4A4A4A;}
</style>
<rect id="Rectangle_147997" class="st0" width="24" height="24"/>
<g id="Group_161981" transform="translate(-154 -1543)">
	<path class="st0" d="M170.9,1553.8l-4.9-7.8l-4.9,7.8c-1.8,2.7-1.4,6.3,0.9,8.6c2.2,2.2,5.7,2.2,8,0l0,0
		C172.3,1560.1,172.7,1556.5,170.9,1553.8L170.9,1553.8z"/>
	<g>
		<path class="st1" d="M170.4,1553.1l-0.7,0.7l0.3,0.5c0,0,0,0,0,0l0,0c0,0,0,0,0,0c0.7,1.1,1.1,2.5,0.9,3.8
			c-0.1,1.4-0.7,2.6-1.7,3.5c-0.9,0.9-2.1,1.3-3.3,1.3c-1.2,0-2.4-0.5-3.3-1.4c-0.1-0.1-0.3-0.3-0.4-0.4l-0.7,0.7
			c0.1,0.2,0.3,0.3,0.4,0.5c2.3,2.2,5.7,2.2,8,0c2.3-2.2,2.7-5.9,0.9-8.6L170.4,1553.1z"/>
		<path class="st1" d="M173.8,1547.6c-0.2-0.2-0.5-0.2-0.7,0l-3.7,3.7l-3.4-5.4l-4.9,7.8c-1.3,1.9-1.4,4.4-0.6,6.4l-2.3,2.3
			c-0.2,0.2-0.2,0.5,0,0.7c0.2,0.2,0.5,0.2,0.7,0l14.8-14.8C174,1548.1,174,1547.8,173.8,1547.6z M161,1558.1
			c-0.1-1.4,0.2-2.7,0.9-3.8c0,0,0,0,0,0l4-6.4l2.6,4.2l-7.3,7.3C161.2,1559,161.1,1558.6,161,1558.1z"/>
	</g>
</g>
</svg>
