<?xml version="1.0" encoding="utf-8"?>
<!-- Generator: Adobe Illustrator 26.0.1, SVG Export Plug-In . SVG Version: 6.00 Build 0)  -->
<svg version="1.1" id="Layer_1" xmlns="http://www.w3.org/2000/svg" xmlns:xlink="http://www.w3.org/1999/xlink" x="0px" y="0px"
	 viewBox="0 0 28 18.4" style="enable-background:new 0 0 28 18.4;" xml:space="preserve">
<style type="text/css">
	.st0{fill:#FFFFFF;}
	.st1{fill:#404D61;}
</style>
<g id="Group_162002" transform="translate(-246 -31.161)">
	<g id="Group_116809" transform="translate(-28 -2441)">
		<circle class="st0" cx="288" cy="2481" r="4"/>
	</g>
	<path class="st1" d="M257.7,41.9c-0.4-0.5-0.7-1.2-0.7-1.9c0-1.7,1.3-3,3-3c0.7,0,1.4,0.3,1.9,0.7l0.7-0.7c-0.7-0.6-1.6-1-2.6-1
		c-2.2,0-4,1.8-4,4c0,1,0.4,1.9,1,2.6L257.7,41.9z"/>
</g>
<path class="st1" d="M21.5,0.4c-0.2-0.2-0.5-0.2-0.7,0L18,3.2c-1.2-0.2-2.6-0.3-4-0.3c-6.6,0-12,2.6-12.9,6l0,0c0.5,2.2,2.9,4,6.1,5
	l-2.8,2.8c-0.2,0.2-0.2,0.5,0,0.7c0.2,0.2,0.5,0.2,0.7,0L21.5,1.1C21.7,0.9,21.7,0.5,21.5,0.4z M2.2,8.8L2.2,8.8c1-2.8,6-5,11.8-5
	c1.1,0,2.1,0.1,3.1,0.2l-9,9C5.1,12.1,2.8,10.6,2.2,8.8z M17,8.8c0-0.2,0-0.3,0-0.5l0.8-0.8C17.9,7.9,18,8.4,18,8.8c0,2.2-1.8,4-4,4
	c-0.5,0-0.9-0.1-1.3-0.2l0.8-0.8c0.2,0,0.3,0,0.5,0C15.7,11.8,17,10.5,17,8.8z M26.9,8.8c-0.9,3.4-6.2,6-12.9,6
	c-1.2,0-2.3-0.1-3.3-0.2l0.9-0.9c0.8,0.1,1.6,0.1,2.4,0.1c5.8,0,10.8-2.2,11.8-5l0,0c-0.6-1.7-2.6-3.1-5.3-4L21.3,4
	C24.3,5.1,26.3,6.8,26.9,8.8L26.9,8.8z"/>
</svg>
