<?xml version="1.0" encoding="utf-8"?>
<!-- Generator: Adobe Illustrator 24.2.1, SVG Export Plug-In . SVG Version: 6.00 Build 0)  -->
<svg version="1.1" id="Layer_1" xmlns="http://www.w3.org/2000/svg" xmlns:xlink="http://www.w3.org/1999/xlink" x="0px" y="0px"
	 viewBox="0 0 20 20" style="enable-background:new 0 0 20 20;" xml:space="preserve">
<g>
	<circle cx="10.5" cy="12.5" r="1.5"/>
	<path d="M15,8h-1V6.5C14,4.6,12.4,3,10.5,3C8.8,3,7.3,4.3,7.1,6h1c0.2-1.2,1.2-2,2.5-2C11.9,4,13,5.1,13,6.5V8H9H8H7H6
		C5.4,8,5,8.5,5,9v7c0,0.6,0.5,1,1,1h9c0.6,0,1-0.5,1-1V9C16,8.4,15.6,8,15,8z M15,16H6V9h1.1H8h5h0.9H15V16z"/>
</g>
</svg>
