<svg width="17" height="16" xmlns="http://www.w3.org/2000/svg" xml:space="preserve" version="1.1">

 <g>
  <title>Layer 1</title>
  <path fill="#4A4A4A" d="m-483,-65.6c-6.1,0 -11,4.9 -11,11s4.9,11 11,11s11,-4.9 11,-11s-4.9,-11 -11,-11zm0,21.1c-5.6,0 -10.1,-4.5 -10.1,-10.1s4.5,-10.1 10.1,-10.1s10.1,4.5 10.1,10.1l0,0c0,5.6 -4.5,10.1 -10.1,10.1z" class="st0" id="Path_148128"/>
  <path fill="#4A4A4A" d="m488.5,81.4l11,0c0.3,0 0.5,0.2 0.5,0.5l0,0c0,0.3 -0.2,0.5 -0.5,0.5l-11,0c-0.3,0 -0.5,-0.2 -0.5,-0.5l0,0c0,-0.3 0.2,-0.5 0.5,-0.5z" class="st0" id="Rectangle_147869"/>
  <path fill="#4A4A4A" d="m490.5,85.4l7,0c0.3,0 0.5,0.2 0.5,0.5l0,0c0,0.3 -0.2,0.5 -0.5,0.5l-7,0c-0.3,0 -0.5,-0.2 -0.5,-0.5l0,0c0,-0.3 0.2,-0.5 0.5,-0.5z" class="st0" id="Rectangle_147870"/>
  <path fill="#4A4A4A" d="m492.5,89.4l3,0c0.3,0 0.5,0.2 0.5,0.5l0,0c0,0.3 -0.2,0.5 -0.5,0.5l-3,0c-0.3,0 -0.5,-0.2 -0.5,-0.5l0,0c0,-0.3 0.2,-0.5 0.5,-0.5z" class="st0" id="Rectangle_147871"/>
  <path fill="#F2CC2F" d="m6.40527,1.67684c0.6,-0.9 1.8,-1.2 2.8,-0.6c0.3,0.2 0.5,0.4 0.6,0.6l6.4,10.2c0.6,0.9 0.3,2.2 -0.6,2.8c-0.3,0.2 -0.7,0.3 -1.1,0.3l-12.8,0c-1.1,0 -2,-0.9 -2,-2c0,-0.4 0.1,-0.7 0.3,-1.1l6.4,-10.2z" class="st1" id="Polygon_3"/>
  <path id="svg_1" fill="#050709" d="m8.10527,10.94117c0.6,0 1,0.4 1,1s-0.4,1 -1,1c-0.6,0 -1,-0.4 -1,-1s0.4,-1 1,-1zm0,-7l0,0c0.6,0 1,0.4 1,1l0,4c0,0.6 -0.4,1 -1,1l0,0c-0.6,0 -1,-0.4 -1,-1l0,-4c0,-0.6 0.4,-1 1,-1z" class="st2"/>
 </g>
</svg>