<?xml version="1.0" encoding="utf-8"?>
<!-- Generator: Adobe Illustrator 24.2.1, SVG Export Plug-In . SVG Version: 6.00 Build 0)  -->
<svg version="1.1" id="Layer_1" xmlns="http://www.w3.org/2000/svg" xmlns:xlink="http://www.w3.org/1999/xlink" x="0px" y="0px"
	 viewBox="0 0 16 16" style="enable-background:new 0 0 16 16;" xml:space="preserve">
<style type="text/css">
	.st0{fill:#69AEFF;}
	.st1{fill:#FFFFFF;}
	.st2{fill:#1580FC;}
	.st3{fill:#4A4A4A;}
</style>
<path id="Rectangle_147830" class="st2" d="M4,2h8c1.1,0,2,0.9,2,2v8c0,1.1-0.9,2-2,2H4c-1.1,0-2-0.9-2-2V4C2,2.9,2.9,2,4,2z"/>
<path id="Union_3" class="st1" d="M7,11V9H5C4.4,9,4,8.6,4,8s0.4-1,1-1h2V5c0-0.6,0.4-1,1-1s1,0.4,1,1v2h2c0.6,0,1,0.4,1,1
	s-0.4,1-1,1H9v2c0,0.6-0.4,1-1,1S7,11.6,7,11z"/>
</svg>
