<?xml version="1.0" encoding="utf-8"?>
<!-- Generator: Adobe Illustrator 24.2.1, SVG Export Plug-In . SVG Version: 6.00 Build 0)  -->
<svg version="1.1" id="Layer_4" xmlns="http://www.w3.org/2000/svg" xmlns:xlink="http://www.w3.org/1999/xlink" x="0px" y="0px"
	 viewBox="0 0 24 24" style="enable-background:new 0 0 24 24;" xml:space="preserve">
<style type="text/css">
	.st0{fill:#050709;}
	.st1{fill:none;}
	.st2{fill:#525252;}
</style>
<path class="st0" d="M12,1C5.9,1,1,5.9,1,12c0,6.1,4.9,11,11,11s11-4.9,11-11C23,5.9,18.1,1,12,1z M12,22.1
	C6.4,22.1,1.9,17.6,1.9,12C1.9,6.4,6.4,1.9,12,1.9S22.1,6.4,22.1,12C22.1,17.6,17.6,22.1,12,22.1z"/>
<g>
	<path class="st1" d="M12.1,10C12.1,10,12,10,12.1,10c-1.2,0-2.1,0.9-2.1,2c0,0.5,0.2,1,0.5,1.4"/>
	<path class="st1" d="M13,8c-0.4,0-0.7-0.1-1.1-0.1c-3.3,0-6.6,1.8-7.2,4.1c0.4,1.6,2.3,3.1,4.6,3.8"/>
	<path class="st1" d="M10.1,14.3C9.4,13.7,9,12.9,9,12c0-1.7,1.3-3,3-3c0.2,0,0.4,0,0.5,0.1"/>
	<path class="st0" d="M9,12c0,0.9,0.4,1.7,1.1,2.3l0.4-0.9C10.2,13,10,12.5,10,12c0-1.1,0.9-2,2-2c0,0,0.1,0,0.1,0l0.4-1
		C12.4,9,12.2,9,12,9C10.3,9,9,10.3,9,12z"/>
	<path class="st0" d="M15,4.9c-0.3-0.1-0.5,0-0.7,0.2l-0.9,1.9C13,7,12.5,7,12,7c-4.2,0-7.4,2.2-8,5c0.4,2.1,2.3,3.8,5,4.6l-1,2.2
		c-0.1,0.3,0,0.5,0.2,0.7c0.3,0.1,0.5,0,0.7-0.2l6.3-13.6C15.3,5.4,15.2,5.1,15,4.9z M4.8,12C5.3,9.8,8.7,7.9,12,7.9
		c0.3,0,0.7,0,1,0.1l-3.6,7.8C7.1,15.1,5.2,13.6,4.8,12z"/>
</g>
<path class="st2" d="M69.4,19.4L69.4,19.4c-0.3-0.1-0.4-0.4-0.2-0.7l6.3-13.6c0.1-0.3,0.4-0.4,0.7-0.2v0c0.3,0.1,0.4,0.4,0.2,0.7
	L70,19.2C69.9,19.5,69.6,19.6,69.4,19.4z"/>
<g>
	<path class="st1" d="M11.4,16.1c0.2,0,0.4,0,0.6,0c3.3,0,6.6-1.9,7.2-4.1c-0.4-1.6-2.1-2.9-4.2-3.6"/>
	<path class="st1" d="M14.2,10c0.5,0.5,0.8,1.2,0.8,2c0,1.7-1.3,3-3,3c0,0-0.1,0-0.1,0"/>
	<path class="st0" d="M15.4,7.5L15,8.4c2.1,0.7,3.8,2.1,4.2,3.6c-0.6,2.2-3.8,4.1-7.2,4.1c-0.2,0-0.4,0-0.6,0L11,17c0.3,0,0.7,0,1,0
		c4.2,0,7.4-2.2,8-5C19.6,10,17.9,8.3,15.4,7.5z"/>
	<path class="st1" d="M12.4,14c0.9-0.2,1.6-1,1.6-2c0-0.4-0.1-0.7-0.3-1"/>
	<path class="st0" d="M14,12c0,1-0.7,1.8-1.6,2l-0.5,1c0,0,0.1,0,0.1,0c1.7,0,3-1.3,3-3c0-0.8-0.3-1.5-0.8-2l-0.5,1
		C13.9,11.3,14,11.6,14,12z"/>
</g>
</svg>
