<svg id="Icon_color" data-name="Icon color" xmlns="http://www.w3.org/2000/svg" xmlns:xlink="http://www.w3.org/1999/xlink" width="24" height="24" viewBox="0 0 24 24">
  <defs>
    <clipPath id="clip-path">
      <rect id="Rectangle_147996" data-name="Rectangle 147996" width="16" height="16" transform="translate(256 586)" fill="none" stroke="#707070" stroke-width="1"/>
    </clipPath>
  </defs>
  <circle id="Ellipse_678" data-name="Ellipse 678" cx="12" cy="12" r="12" fill="none"/>
  <g id="Group_161975" data-name="Group 161975" transform="translate(-252 -582)">
    <rect id="Rectangle_147994" data-name="Rectangle 147994" width="16" height="16" transform="translate(256 586)" fill="none"/>
    <g id="Mask_Group_7" data-name="Mask Group 7" clip-path="url(#clip-path)">
      <g id="Group_161974" data-name="Group 161974">
        <g id="Group_161973" data-name="Group 161973" transform="matrix(0.839, 0.545, -0.545, 0.839, 2699.834, -3909.989)">
          <g id="Rectangle_147992" data-name="Rectangle 147992" transform="translate(404.917 5101)" fill="none" stroke="#4a4a4a" stroke-width="1">
            <path d="M0,0H8A0,0,0,0,1,8,0V6A2,2,0,0,1,6,8H2A2,2,0,0,1,0,6V0A0,0,0,0,1,0,0Z" stroke="none"/>
            <path d="M1,.5H7a.5.5,0,0,1,.5.5V6A1.5,1.5,0,0,1,6,7.5H2A1.5,1.5,0,0,1,.5,6V1A.5.5,0,0,1,1,.5Z" fill="none"/>
          </g>
          <path id="Path_148193" data-name="Path 148193" d="M6.746.488a1.04,1.04,0,0,1,.692.927v4.9A1.193,1.193,0,0,1,6.28,7.544H1.649c-.639,0-.371.37-.371-.307Z" transform="translate(404.922 5100.969)" fill="#4a4a4a"/>
          <rect id="Rectangle_147993" data-name="Rectangle 147993" width="3" height="1" rx="0.5" transform="translate(403 5101)" fill="#4a4a4a"/>
        </g>
        <path id="Path_148195" data-name="Path 148195" d="M99.92,37.223,98.7,35.064l-1.216,2.154a2.061,2.061,0,0,0,.228,2.392,1.321,1.321,0,0,0,1.991.005h0a2.057,2.057,0,0,0,.22-2.39Z" transform="translate(169.797 557.936)" fill="#4a4a4a"/>
      </g>
    </g>
  </g>
</svg>
