<svg width="11" height="13.999999999999998" xmlns="http://www.w3.org/2000/svg" version="1.1" xml:space="preserve">
 <g>
  <title>Layer 1</title>
  <g>
   <g>
    <path fill="#4A4A4A" d="m9.8,3c0.1,0 0.2,0.1 0.2,0.4l0,9.3c0,0.2 -0.1,0.4 -0.2,0.4l-6.6,0c-0.1,-0.1 -0.2,-0.2 -0.2,-0.5l0,-9.2c0,-0.3 0.1,-0.4 0.2,-0.4l6.6,0m-1.3,-3l-8,0c-0.3,0 -0.5,0.2 -0.5,0.5l0,10c0,0.3 0.2,0.5 0.5,0.5s0.5,-0.2 0.5,-0.5l0,-9.5l7.5,0c0.3,0 0.5,-0.2 0.5,-0.5s-0.2,-0.5 -0.5,-0.5l0,0zm-5.3,2c-0.6,0 -1.2,0.6 -1.2,1.4l0,9.3c0,0.7 0.6,1.3 1.2,1.3l0,0l6.5,0c0.7,0 1.2,-0.6 1.2,-1.4l0,-9.2c0.1,-0.8 -0.5,-1.4 -1.1,-1.4l0,0l-6.6,0l0,0l0,0z" class="st0"/>
   </g>
  </g>
 </g>

</svg>