<?xml version="1.0" encoding="utf-8"?>
<!-- Generator: Adobe Illustrator 24.2.1, SVG Export Plug-In . SVG Version: 6.00 Build 0)  -->
<svg version="1.1" id="Layer_1" xmlns="http://www.w3.org/2000/svg" xmlns:xlink="http://www.w3.org/1999/xlink" x="0px" y="0px"
	 viewBox="0 0 20 20" style="enable-background:new 0 0 20 20;" xml:space="preserve">
<style type="text/css">
	.st0{fill:#4A4A4A;}
	.st1{fill:#797E8D;}
	.st2{fill:none;}
	.st3{fill:#C73431;}
</style>
<g id="Icon_material-mode-comment" transform="translate(349 384.52)">
	<path class="st2" d="M-333-378.3c0-0.7-0.5-1.2-1.2-1.2h-9.6c-0.7,0-1.2,0.5-1.2,1.2v6.6c0,0.7,0.5,1.2,1.2,1.2h8.4l2.4,2.4
		L-333-378.3z"/>
	<path class="st1" d="M-343.8-378.5c-0.1,0-0.2,0.1-0.2,0.2v6.6c0,0.1,0.1,0.2,0.2,0.2h8.4c0.3,0,0.5,0.1,0.7,0.3l0.7,0.7v-7.8
		c0-0.1-0.1-0.2-0.2-0.2H-343.8 M-343.8-379.5h9.6c0.7,0,1.2,0.5,1.2,1.2l0,9.8l-2.4-2.1h-8.4c-0.7,0-1.2-0.5-1.2-1.1v-6.6
		C-345-379-344.5-379.5-343.8-379.5z"/>
</g>
</svg>
