<?xml version="1.0" encoding="utf-8"?>
<!-- Generator: Adobe Illustrator 24.2.1, SVG Export Plug-In . SVG Version: 6.00 Build 0)  -->
<svg version="1.1" id="edit-con_copy" xmlns="http://www.w3.org/2000/svg" xmlns:xlink="http://www.w3.org/1999/xlink" x="0px"
	 y="0px" viewBox="0 0 32 32" style="enable-background:new 0 0 32 32;" xml:space="preserve">
<style type="text/css">
	.st0{fill:none;}
	.st1{fill:#C73431;}
</style>
<circle class="st0" cx="16" cy="16" r="12"/>
<path class="st1" d="M16,28C9.4,28,4,22.6,4,16C4,9.4,9.4,4,16,4s12,5.4,12,12C28,22.6,22.6,28,16,28z M16,5C9.9,5,5,9.9,5,16
	s4.9,11,11,11s11-4.9,11-11S22.1,5,16,5z M16,20c0.6,0,1,0.4,1,1s-0.4,1-1,1c-0.6,0-1-0.4-1-1S15.4,20,16,20z M16,10L16,10
	c0.6,0,1,0.4,1,1v7c0,0.6-0.4,1-1,1l0,0c-0.6,0-1-0.4-1-1v-7C15,10.4,15.4,10,16,10z"/>
</svg>
