<?xml version="1.0" encoding="utf-8"?>
<!-- Generator: Adobe Illustrator 24.2.1, SVG Export Plug-In . SVG Version: 6.00 Build 0)  -->
<svg version="1.1" id="Layer_1" xmlns="http://www.w3.org/2000/svg" xmlns:xlink="http://www.w3.org/1999/xlink" x="0px" y="0px"
	 viewBox="0 0 32 32" style="enable-background:new 0 0 32 32;" xml:space="preserve">
<style type="text/css">
	.st0{fill:#4A4A4A;}
	.st1{fill:#F2CC2F;}
	.st2{fill:#050709;}
</style>
<path id="Path_148128" class="st0" d="M-483-65.6c-6.1,0-11,4.9-11,11s4.9,11,11,11s11-4.9,11-11S-476.9-65.6-483-65.6z M-483-44.5
	c-5.6,0-10.1-4.5-10.1-10.1s4.5-10.1,10.1-10.1s10.1,4.5,10.1,10.1l0,0C-472.9-49-477.4-44.5-483-44.5z"/>
<path id="Rectangle_147869" class="st0" d="M488.5,81.4h11c0.3,0,0.5,0.2,0.5,0.5l0,0c0,0.3-0.2,0.5-0.5,0.5h-11
	c-0.3,0-0.5-0.2-0.5-0.5l0,0C488,81.6,488.2,81.4,488.5,81.4z"/>
<path id="Rectangle_147870" class="st0" d="M490.5,85.4h7c0.3,0,0.5,0.2,0.5,0.5l0,0c0,0.3-0.2,0.5-0.5,0.5h-7
	c-0.3,0-0.5-0.2-0.5-0.5l0,0C490,85.6,490.2,85.4,490.5,85.4z"/>
<path id="Rectangle_147871" class="st0" d="M492.5,89.4h3c0.3,0,0.5,0.2,0.5,0.5l0,0c0,0.3-0.2,0.5-0.5,0.5h-3
	c-0.3,0-0.5-0.2-0.5-0.5l0,0C492,89.6,492.2,89.4,492.5,89.4z"/>
<path id="Polygon_3" class="st1" d="M14.3,9.7c0.6-0.9,1.8-1.2,2.8-0.6c0.3,0.2,0.5,0.4,0.6,0.6l6.4,10.2c0.6,0.9,0.3,2.2-0.6,2.8
	c-0.3,0.2-0.7,0.3-1.1,0.3H9.6c-1.1,0-2-0.9-2-2c0-0.4,0.1-0.7,0.3-1.1L14.3,9.7z"/>
<path class="st2" d="M16,19c0.6,0,1,0.4,1,1s-0.4,1-1,1c-0.6,0-1-0.4-1-1S15.4,19,16,19z M16,12L16,12c0.6,0,1,0.4,1,1v4
	c0,0.6-0.4,1-1,1l0,0c-0.6,0-1-0.4-1-1v-4C15,12.4,15.4,12,16,12z"/>
</svg>
