<?xml version="1.0" encoding="utf-8"?>
<!-- Generator: Adobe Illustrator 24.2.1, SVG Export Plug-In . SVG Version: 6.00 Build 0)  -->
<svg version="1.1" id="Layer_1" xmlns="http://www.w3.org/2000/svg" xmlns:xlink="http://www.w3.org/1999/xlink" x="0px" y="0px"
	 viewBox="0 0 32 32" style="enable-background:new 0 0 32 32;" xml:space="preserve">
<style type="text/css">
	.st0{fill:#797E8C;}
</style>
<path class="st0" d="M2.9,16c0,6.6,4.9,12,11.1,13v1C7.2,29,2,23.1,2,16C2,9.6,6.2,4.2,12,2.5L8,0.9L8.4,0c0,0,5.5,2,5.6,2v0.9
	c-0.1,0-0.6,0.1-0.6,0.1C7.5,4.2,2.9,9.7,2.9,16z M19.6,29c0,0-0.4,0.1-0.6,0.1V30c0.1,0,5.6,2,5.6,2l0.4-0.9l-4-1.5
	c5.8-1.8,10-7.1,10-13.5c0-7.1-5.2-13-12-14v1c6.2,1,11.1,6.4,11.1,13C30.1,22.3,25.5,27.8,19.6,29z M23,8v5v11c0,0.6-0.4,1-1,1H11
	c-0.6,0-1-0.4-1-1V13V8c0-0.6,0.5-0.9,1.1-0.9h11C22.6,7.1,23,7.4,23,8z M21.9,9H11v3.1h11L21.9,9L21.9,9z M22,13H11v11h11V13z
	 M20,15h-2v7h2V15 M20,14.1c0.6,0,1,0.3,1,0.9v7c0,0.6-0.4,1-1,1h-2c-0.6,0-1-0.4-1-1v-7c0-0.6,0.4-0.9,1-0.9H20L20,14.1z M15,15h-2
	v2h2V15 M14.9,14.1c0.6,0,1.1,0.4,1.1,0.9v2c0,0.6-0.4,1-1,1h-2c-0.6,0-1-0.4-1-1v-2c0-0.6,0.3-0.9,0.9-0.9L14.9,14.1L14.9,14.1z
	 M15,20h-2v2h2V20 M15,19c0.6,0,1,0.4,1,1v2c0,0.6-0.4,1-1,1h-2c-0.6,0-1-0.4-1-1v-2c0-0.6,0.4-1,1-1H15L15,19z"/>
</svg>
