<?xml version="1.0" encoding="utf-8"?>
<!-- Generator: Adobe Illustrator 26.0.3, SVG Export Plug-In . SVG Version: 6.00 Build 0)  -->
<svg version="1.1" id="info_icon" xmlns="http://www.w3.org/2000/svg" xmlns:xlink="http://www.w3.org/1999/xlink" x="0px" y="0px"
	 viewBox="0 0 16 16" style="enable-background:new 0 0 16 16;" xml:space="preserve">
<style type="text/css">
	.st0{fill:none;}
	.st1{fill:#4A4A4A;}
</style>
<g id="Group_162632" transform="translate(-1019 -1674)">
	<circle class="st0" cx="1027" cy="1682" r="7"/>
	<path class="st1" d="M1027,1675c-3.9,0-7,3.1-7,7c0,3.9,3.1,7,7,7s7-3.1,7-7C1034,1678.1,1030.9,1675,1027,1675z M1027,1688
		c-3.3,0-6-2.7-6-6s2.7-6,6-6s6,2.7,6,6S1030.3,1688,1027,1688z M1027.5,1681.5v3c0,0.3-0.2,0.5-0.5,0.5s-0.5-0.2-0.5-0.5v-3
		c0-0.3,0.2-0.5,0.5-0.5S1027.5,1681.2,1027.5,1681.5z M1027.5,1679.5c0,0.3-0.2,0.5-0.5,0.5s-0.5-0.2-0.5-0.5s0.2-0.5,0.5-0.5
		S1027.5,1679.2,1027.5,1679.5z"/>
</g>
</svg>
