<svg xmlns="http://www.w3.org/2000/svg" width="24" height="24" viewBox="0 0 24 24">
  <g id="Group_162062" data-name="Group 162062" transform="translate(-976 -404)">
    <rect id="Rectangle_148046" data-name="Rectangle 148046" width="24" height="24" transform="translate(976 404)" fill="none"/>
    <path id="calendar" d="M16.4,3H14V1.5a.5.5,0,0,0-1,0V3H6V1.5A.472.472,0,0,0,5.5,1a.472.472,0,0,0-.5.5V3H2.6A1.561,1.561,0,0,0,1,4.5v11A1.561,1.561,0,0,0,2.6,17H16.4A1.561,1.561,0,0,0,18,15.5V4.5A1.561,1.561,0,0,0,16.4,3ZM17,15.5a.56.56,0,0,1-.6.5H2.6a.56.56,0,0,1-.6-.5V8H17ZM2,7V4.5A.56.56,0,0,1,2.6,4H5V5.5a.472.472,0,0,0,.5.5A.472.472,0,0,0,6,5.5V4h7V5.5a.5.5,0,0,0,1,0V4h2.4a.56.56,0,0,1,.6.5V7Zm11,3.5a.472.472,0,0,1,.5-.5h2a.5.5,0,0,1,0,1h-2A.472.472,0,0,1,13,10.5Zm0,3a.472.472,0,0,1,.5-.5h2a.5.5,0,0,1,0,1h-2A.472.472,0,0,1,13,13.5Zm-5-3a.472.472,0,0,1,.5-.5h2a.5.5,0,0,1,0,1h-2A.472.472,0,0,1,8,10.5Zm0,3a.472.472,0,0,1,.5-.5h2a.5.5,0,0,1,0,1h-2A.472.472,0,0,1,8,13.5Zm-5-3a.472.472,0,0,1,.5-.5h2a.5.5,0,0,1,0,1h-2A.472.472,0,0,1,3,10.5Zm0,3a.472.472,0,0,1,.5-.5h2a.5.5,0,0,1,0,1h-2A.472.472,0,0,1,3,13.5Z" transform="translate(979 407)" fill="#404d61"/>
  </g>
</svg>
