<?xml version="1.0" encoding="utf-8"?>
<!-- Generator: Adobe Illustrator 26.0.1, SVG Export Plug-In . SVG Version: 6.00 Build 0)  -->
<svg version="1.1" id="Button_fillter" xmlns="http://www.w3.org/2000/svg" xmlns:xlink="http://www.w3.org/1999/xlink" x="0px"
	 y="0px" viewBox="0 0 24 24" style="enable-background:new 0 0 24 24;" xml:space="preserve">
<style type="text/css">
	.st0{fill:#1268FB;}
</style>
<path class="st0" d="M12,1C5.9,1,1,5.9,1,12s4.9,11,11,11s11-4.9,11-11S18.1,1,12,1z M12,22.1C6.4,22.1,1.9,17.6,1.9,12
	S6.4,1.9,12,1.9S22.1,6.4,22.1,12l0,0C22.1,17.6,17.6,22.1,12,22.1z M6.5,8h11C17.8,8,18,8.2,18,8.5l0,0C18,8.8,17.8,9,17.5,9h-11
	C6.2,9,6,8.8,6,8.5l0,0C6,8.2,6.2,8,6.5,8z M8.5,12h7c0.3,0,0.5,0.2,0.5,0.5l0,0c0,0.3-0.2,0.5-0.5,0.5h-7C8.2,13,8,12.8,8,12.5l0,0
	C8,12.2,8.2,12,8.5,12z M10.5,16h3c0.3,0,0.5,0.2,0.5,0.5l0,0c0,0.3-0.2,0.5-0.5,0.5h-3c-0.3,0-0.5-0.2-0.5-0.5l0,0
	C10,16.2,10.2,16,10.5,16z"/>
</svg>
