<svg xmlns="http://www.w3.org/2000/svg" xmlns:xlink="http://www.w3.org/1999/xlink" version="1.1" style="" xml:space="preserve" width="22" height="22"><rect id="backgroundrect" width="100%" height="100%" x="0" y="0" fill="none" stroke="none"/>
<style type="text/css">
	.st0{fill:#4A4A4A;}
</style>





<g class="currentLayer" style=""><title>Layer 1</title><path id="Path_148128" class="st0" d="M-483-65.6c-6.1,0-11,4.9-11,11s4.9,11,11,11s11-4.9,11-11S-476.9-65.6-483-65.6z M-483-44.5  c-5.6,0-10.1-4.5-10.1-10.1s4.5-10.1,10.1-10.1c5.6,0,10.1,4.5,10.1,10.1l0,0C-472.9-49-477.4-44.5-483-44.5z"/><path id="Rectangle_147869" class="st0" d="M488.5,81.4h11c0.3,0,0.5,0.2,0.5,0.5l0,0c0,0.3-0.2,0.5-0.5,0.5h-11  c-0.3,0-0.5-0.2-0.5-0.5l0,0C488,81.6,488.2,81.4,488.5,81.4z"/><path id="Rectangle_147870" class="st0" d="M490.5,85.4h7c0.3,0,0.5,0.2,0.5,0.5l0,0c0,0.3-0.2,0.5-0.5,0.5h-7  c-0.3,0-0.5-0.2-0.5-0.5l0,0C490,85.6,490.2,85.4,490.5,85.4z"/><path id="Rectangle_147871" class="st0" d="M492.5,89.4h3c0.3,0,0.5,0.2,0.5,0.5l0,0c0,0.3-0.2,0.5-0.5,0.5h-3  c-0.3,0-0.5-0.2-0.5-0.5l0,0C492,89.6,492.2,89.4,492.5,89.4z"/><path class="st0" d="M11.009999752044678,-0.033634305000305176 C4.909999752044678,-0.033634305000305176 0.009999752044677623,4.866365694999695 0.009999752044677623,10.966365694999695 s4.9,11 11,11 s11,-4.9 11,-11 S17.10999975204468,-0.033634305000305176 11.009999752044678,-0.033634305000305176 zM11.009999752044678,20.966365694999695 c-5.5,0 -10,-4.5 -10,-10 S5.509999752044678,0.9663656949996948 11.009999752044678,0.9663656949996948 s10,4.5 10,10 S16.509999752044678,20.966365694999695 11.009999752044678,20.966365694999695 zM10.809999752044678,8.966365694999695 c0.2,0.2 0.2,0.5 0,0.7000000000000002 c-0.2,0.2 -0.5,0.2 -0.7000000000000002,0 l-2.2,-2 v7.8 c0,0.3000000000000001 -0.2,0.5 -0.5,0.5 c-0.3000000000000001,0 -0.5,-0.2 -0.5,-0.5 v-7.8 l-2.2,2 c-0.1,0.1 -0.2,0.1 -0.3000000000000001,0.1 c-0.1,0 -0.3000000000000001,-0.1 -0.4,-0.2 c-0.2,-0.2 -0.2,-0.5 0,-0.7000000000000002 l3,-2.8 l0,0 l0,0 c0,0 0,0 0.1,0 c0,0 0.1,0 0.1,-0.1 h0 c0,0 0.1,0 0.1,0 c0,0 0.1,0 0.1,0 h0 h0 c0,0 0.1,0 0.1,0 c0,0 0.1,0 0.1,0 l0,0 c0,0 0,0 0,0 c0,0 0,0 0.1,0 c0,0 0,0 0,0 l0,0 l0,0 L10.809999752044678,8.966365694999695 zM17.909999752044676,12.266365694999696 c0.2,0.2 0.2,0.5 0,0.7000000000000002 l-3,2.8 l0,0 l0,0 c0,0 0,0 -0.1,0 c0,0 -0.1,0 -0.1,0.1 h0 c0,0 -0.1,0 -0.1,0 c0,0 -0.1,0 -0.1,0 h0 h0 c0,0 -0.1,0 -0.1,0 c0,0 -0.1,0 -0.1,0 h0 c0,0 0,0 0,0 c0,0 0,0 -0.1,0 c0,0 0,0 0,0 l0,0 l0,0 l-3,-2.8 c-0.2,-0.2 -0.2,-0.5 0,-0.7000000000000002 c0.2,-0.2 0.5,-0.2 0.7000000000000002,0 l2.2,2 v-7.8 c0,-0.3000000000000001 0.2,-0.5 0.5,-0.5 c0.3000000000000001,0 0.5,0.2 0.5,0.5 v7.8 l2.2,-2 c0.1,-0.1 0.2,-0.1 0.3000000000000001,-0.1 l0,0 C17.60999975204468,12.166365694999694 17.80999975204468,12.166365694999694 17.909999752044676,12.266365694999696 z" id="svg_1"/></g></svg>