<?xml version="1.0" encoding="utf-8"?>
<!-- Generator: Adobe Illustrator 26.0.2, SVG Export Plug-In . SVG Version: 6.00 Build 0)  -->
<svg version="1.1" id="Layer_1" xmlns="http://www.w3.org/2000/svg" xmlns:xlink="http://www.w3.org/1999/xlink" x="0px" y="0px"
	 viewBox="0 0 16 16" style="enable-background:new 0 0 16 16;" xml:space="preserve">
<style type="text/css">
	.st0{fill:none;}
	.st1{fill:#404D61;}
	.st2{fill:#AFAFAF;}
</style>
<g id="Chevron" transform="translate(0 16) rotate(-90)">
	
		<rect id="Rectangle_148077" x="0" transform="matrix(-2.535182e-06 -1 1 -2.535182e-06 5.521149e-05 16.0001)" class="st0" width="16" height="16"/>
	
		<rect id="Rectangle_148076" x="0" transform="matrix(-2.535182e-06 -1 1 -2.535182e-06 5.521149e-05 16.0001)" class="st0" width="16" height="16"/>
</g>
<path class="st1" d="M8,13.1l1.7-2.6H6.3L8,13.1 M8,15c-0.3,0-0.6-0.1-0.8-0.4l-2.6-4C4.3,9.9,4.6,9,5.4,9h5.1
	c0.8,0,1.2,0.9,0.8,1.6l-2.6,4C8.6,14.9,8.3,15,8,15z"/>
<path class="st2" d="M8,2.9L6.3,5.4h3.4L8,2.9 M8,1c0.3,0,0.6,0.1,0.8,0.4l2.6,4c0.4,0.7,0,1.6-0.8,1.6H5.5C4.7,7,4.2,6.1,4.7,5.4
	l2.6-4C7.4,1.1,7.7,1,8,1z"/>
</svg>
