<?xml version="1.0" encoding="utf-8"?>
<!-- Generator: Adobe Illustrator 26.1.0, SVG Export Plug-In . SVG Version: 6.00 Build 0)  -->
<svg version="1.1" id="Component_231_3" xmlns="http://www.w3.org/2000/svg" xmlns:xlink="http://www.w3.org/1999/xlink" x="0px"
	 y="0px" viewBox="0 0 16 16" style="enable-background:new 0 0 16 16;" xml:space="preserve">
<style type="text/css">
	.st0{fill:#4A4A4A;}
</style>
<path class="st0" d="M5.5,8.7C5.3,8.5,5.3,8.2,5.5,8C5.7,7.8,6,7.8,6.2,8l1.3,1.3V2.5C7.5,2.2,7.7,2,8,2s0.5,0.2,0.5,0.5v6.8L9.8,8
	c0.2-0.2,0.5-0.2,0.7,0c0.2,0.2,0.2,0.5,0,0.7l-2.1,2.1c-0.2,0.2-0.5,0.2-0.7,0L5.5,8.7z M13.5,11c-0.3,0-0.5,0.2-0.5,0.5V13H3v-1.5
	C3,11.2,2.8,11,2.5,11S2,11.2,2,11.5v2C2,13.8,2.2,14,2.5,14h11c0.3,0,0.5-0.2,0.5-0.5v-2C14,11.2,13.8,11,13.5,11z"/>
</svg>
