<?xml version="1.0" encoding="utf-8"?>
<!-- Generator: Adobe Illustrator 24.2.1, SVG Export Plug-In . SVG Version: 6.00 Build 0)  -->
<svg version="1.1" id="Layer_1" xmlns="http://www.w3.org/2000/svg" xmlns:xlink="http://www.w3.org/1999/xlink" x="0px" y="0px"
	 viewBox="0 0 18 18" style="enable-background:new 0 0 18 18;" xml:space="preserve">
<style type="text/css">
	.st0{fill:#404D61;}
</style>
<path id="Icon_material-sync" class="st0" d="M9,3.2V1L6,3.9l3,2.9V4.6c2.4,0,4.5,1.9,4.5,4.4c0,0.7-0.2,1.4-0.5,2l1.1,1.1
	c0.6-0.9,0.9-2,0.9-3.1C14.9,5.7,12.3,3.1,9,3.2z M9,13.4c-2.4,0-4.5-1.9-4.5-4.4c0-0.7,0.2-1.4,0.5-2L3.9,5.9C3.3,6.8,3,7.9,3,9
	c0.1,3.3,2.7,5.9,6,5.8V17l3-2.9l-3-2.9V13.4z"/>
</svg>
