<?xml version="1.0" encoding="utf-8"?>
<!-- Generator: Adobe Illustrator 24.2.1, SVG Export Plug-In . SVG Version: 6.00 Build 0)  -->
<svg version="1.1" id="sorting" xmlns="http://www.w3.org/2000/svg" xmlns:xlink="http://www.w3.org/1999/xlink" x="0px" y="0px"
	 viewBox="0 0 24 24" style="enable-background:new 0 0 24 24;" xml:space="preserve">
<style type="text/css">
	.st0{fill:#4A4A4A;}
</style>
<path class="st0" d="M12,1C5.9,1,1,5.9,1,12s4.9,11,11,11s11-4.9,11-11S18.1,1,12,1z M12,22.1C6.4,22.1,1.9,17.6,1.9,12
	S6.4,1.9,12,1.9S22.1,6.4,22.1,12l0,0C22.1,17.6,17.6,22.1,12,22.1z M10,7H6C5.4,7,5,7.4,5,8v8c0,0.6,0.4,1,1,1h4c0.6,0,1-0.4,1-1V8
	C11,7.4,10.6,7,10,7z M10,16.1H6V9h4V16.1z M18,7h-4c-0.6,0-1,0.4-1,1v6c0,0.6,0.4,1,1,1h4c0.6,0,1-0.4,1-1V8C19,7.4,18.6,7,18,7z
	 M18,14.1h-4V9h4V14.1z"/>
</svg>
