<?xml version="1.0" encoding="utf-8"?>
<!-- Generator: Adobe Illustrator 24.2.1, SVG Export Plug-In . SVG Version: 6.00 Build 0)  -->
<svg version="1.1" id="Layer_1" xmlns="http://www.w3.org/2000/svg" xmlns:xlink="http://www.w3.org/1999/xlink" x="0px" y="0px"
	 viewBox="0 0 26 26" style="enable-background:new 0 0 26 26;" xml:space="preserve">
<style type="text/css">
	.st0{fill:#5900D3;}
</style>
<path class="st0" d="M13,1c6.6,0,12,5.4,12,12s-5.4,12-12,12S1,19.6,1,13S6.4,1,13,1z M12.2,14.6c0.2,0.2,0.5,0.4,0.8,0.4
	s0.6-0.1,0.8-0.4l2.5-3c0.4-0.4,0.3-1.1-0.1-1.4c-0.4-0.4-1.1-0.3-1.4,0.1L14,11.2V6c0-0.6-0.4-1-1-1s-1,0.4-1,1v5.2l-0.7-0.9
	c-0.4-0.4-1-0.5-1.4-0.1c-0.4,0.4-0.5,1-0.1,1.4L12.2,14.6z M18,15c-0.6,0-1,0.4-1,1v1H9v-1c0-0.6-0.4-1-1-1s-1,0.4-1,1v2
	c0,0.6,0.4,1,1,1h10c0.6,0,1-0.4,1-1v-2C19,15.4,18.6,15,18,15z"/>
</svg>
