<svg width="11" height="13" xmlns="http://www.w3.org/2000/svg" xml:space="preserve" version="1.1">

 <g>
  <title>Layer 1</title>
  <g transform="rotate(-90 -0.00000104907 16)" id="Chevron">
   <rect y="-0.00004" fill="none" height="16" width="16" class="st0" transform="matrix(-0.00000253518 -1 1 -0.00000253518 0.0000552115 16.0001)" x="-16" id="Rectangle_148077"/>
   <rect y="-0.00004" fill="none" height="16" width="16" class="st0" transform="matrix(-0.00000253518 -1 1 -0.00000253518 0.0000552115 16.0001)" x="-16" id="Rectangle_148076"/>
  </g>
  <path id="svg_1" fill="#404D61" d="m5.51411,11.19591l1.7,-2.6l-3.4,0l1.7,2.6m0,1.9c-0.3,0 -0.6,-0.1 -0.8,-0.4l-2.6,-4c-0.3,-0.7 0,-1.6 0.8,-1.6l5.1,0c0.8,0 1.2,0.9 0.8,1.6l-2.6,4c-0.1,0.3 -0.4,0.4 -0.7,0.4z" class="st1"/>
  <path id="svg_2" fill="#AFAFAF" d="m5.50019,1.9l-1.7,2.5l3.4,0l-1.7,-2.5m0.30183,-1.9c0.3,0 0.29817,0.1 0.49817,0.4l2.6,4c0.4,0.7 0,1.6 -0.8,1.6l-5.1,0c-0.8,0 -1.3,-0.9 -0.8,-1.6l2.6,-4c0.1,-0.3 0.70183,-0.4 1.00183,-0.4z" class="st2"/>
 </g>
</svg>