<?xml version="1.0" encoding="utf-8"?>
<!-- Generator: Adobe Illustrator 24.2.1, SVG Export Plug-In . SVG Version: 6.00 Build 0)  -->
<svg version="1.1" id="Layer_1" xmlns="http://www.w3.org/2000/svg" xmlns:xlink="http://www.w3.org/1999/xlink" x="0px" y="0px"
	 viewBox="0 0 24 24" style="enable-background:new 0 0 24 24;" xml:space="preserve">
<style type="text/css">
	.st0{fill:#404D61;}
</style>
<path class="st0" d="M18,22H6c-0.6,0-1-0.4-1-1V7h3.5C8.8,7,9,6.7,9,6.5V3h9c0.6,0,1,0.4,1,1v17C19,21,19,22,18,22z M20,21V4
	c0-1.1-0.9-2-2-2H8c0,0-1.1,1.1-2.1,2.1C4.8,5.2,4,6,4,6v15c0,1.1,0.9,2,2,2h12C20,23,20,21,20,21z M8,6H5.4
	c0.4-0.4,0.8-0.8,1.2-1.2L7,4.4C7.4,4,7.7,3.7,8,3.3V6z"/>
</svg>
