<?xml version="1.0" encoding="utf-8"?>
<!-- Generator: Adobe Illustrator 24.2.1, SVG Export Plug-In . SVG Version: 6.00 Build 0)  -->
<svg version="1.1" id="Layer_1" xmlns="http://www.w3.org/2000/svg" xmlns:xlink="http://www.w3.org/1999/xlink" x="0px" y="0px"
	 viewBox="0 0 20 20" style="enable-background:new 0 0 20 20;" xml:space="preserve">
<style type="text/css">
	.st0{fill:#4A4A4A;}
	.st1{fill:#797E8D;}
	.st2{fill:none;}
	.st3{fill:#C73431;}
</style>
<path class="st1" d="M10,4.8c1.2,0,2.2,1,2.2,2.2s-1,2.2-2.2,2.2S7.8,8.2,7.8,7S8.8,4.8,10,4.8 M10,4C8.3,4,7,5.3,7,7s1.3,3,3,3
	s3-1.3,3-3S11.7,4,10,4L10,4z M16,16v-2c0-1.7-1.3-3-3-3H7c-1.7,0-3,1.3-3,3l0,2H16z M5,14c0-1.1,0.9-2.1,2-2.1h6c1.1,0,2,1,2,2.1v2
	H5V14z"/>
</svg>
