<?xml version="1.0" encoding="utf-8"?>
<!-- Generator: Adobe Illustrator 24.2.1, SVG Export Plug-In . SVG Version: 6.00 Build 0)  -->
<svg version="1.1" id="Layer_4" xmlns="http://www.w3.org/2000/svg" xmlns:xlink="http://www.w3.org/1999/xlink" x="0px" y="0px"
	 viewBox="0 0 24 24" style="enable-background:new 0 0 24 24;" xml:space="preserve">
<style type="text/css">
	.st0{fill:#050709;}
</style>
<path class="st0" d="M12,9c-1.7,0-3,1.3-3,3s1.3,3,3,3s3-1.3,3-3S13.7,9,12,9z M12,14c-1.1,0-2-0.9-2-2s0.9-2,2-2s2,0.9,2,2
	S13.1,14,12,14z"/>
<path class="st0" d="M12,7c-4.2,0-7.4,2.2-8,5c0.6,2.8,3.8,5,8,5s7.4-2.2,8-5C19.4,9.2,16.2,7,12,7z M12,16.1
	c-3.3,0-6.6-1.9-7.2-4.1C5.4,9.8,8.1,7.9,12,7.9c4.1,0,6.6,1.8,7.2,4.1C18.6,14.2,15.3,16.1,12,16.1z"/>
<path class="st0" d="M12,1C5.9,1,1,5.9,1,12s4.9,11,11,11s11-4.9,11-11S18.1,1,12,1z M12,22.1C6.4,22.1,1.9,17.6,1.9,12
	S6.4,1.9,12,1.9S22.1,6.4,22.1,12S17.6,22.1,12,22.1z"/>
</svg>
