<?xml version="1.0" encoding="utf-8"?>
<!-- Generator: Adobe Illustrator 24.2.1, SVG Export Plug-In . SVG Version: 6.00 Build 0)  -->
<svg version="1.1" id="Layer_1" xmlns="http://www.w3.org/2000/svg" xmlns:xlink="http://www.w3.org/1999/xlink" x="0px" y="0px"
	 viewBox="0 0 16 20" style="enable-background:new 0 0 16 20;" xml:space="preserve">
<style type="text/css">
	.st0{fill:#404D61;}
</style>
<path class="st0" d="M12.1,4.1L10,2H4C2.9,2,2,2.9,2,4v12c0,1.1,0.9,2,2,2h5c0,0,3.1,0,3,0c1.1,0,2-0.9,2-2V6L12.1,4.1z M10,3.3
	c0,0,2.6,2.7,2.6,2.7H10V3.3z M13,16.1c0,0.6-0.2,0.9-1,0.9c0,0-8,0-8,0c-0.8,0-1-0.3-1-1.1C3,16,3,4,3,4c0-0.5,0.5-1,1-1h5v3.5
	C9,6.8,9.2,7,9.5,7H13C13,7,13,16.1,13,16.1z M4.5,9h7C11.8,9,12,9.2,12,9.5l0,0c0,0.3-0.2,0.5-0.5,0.5h-7C4.2,10,4,9.8,4,9.5l0,0
	C4,9.2,4.2,9,4.5,9z M4.5,12h7c0.3,0,0.5,0.2,0.5,0.5l0,0c0,0.3-0.2,0.5-0.5,0.5h-7C4.2,13,4,12.8,4,12.5l0,0C4,12.2,4.2,12,4.5,12z
	"/>
</svg>
