<?xml version="1.0" encoding="utf-8"?>
<!-- Generator: Adobe Illustrator 26.0.3, SVG Export Plug-In . SVG Version: 6.00 Build 0)  -->
<svg version="1.1" id="Component_158_1" xmlns="http://www.w3.org/2000/svg" xmlns:xlink="http://www.w3.org/1999/xlink" x="0px"
	 y="0px" viewBox="0 0 24 24" style="enable-background:new 0 0 24 24;" xml:space="preserve">
<style type="text/css">
	.st0{fill:none;}
	.st1{fill:#4A4A4A;}
</style>
<g id="Group_162818" transform="translate(-880 -319)">
	<g id="Group_162812" transform="translate(2 -1)">
		<rect id="Rectangle_148394" x="878" y="320" class="st0" width="24" height="24"/>
	</g>
</g>
<path class="st1" d="M6,15h1c0.3,0,0.5,0.2,0.5,0.5S7.3,16,7,16H6c-0.3,0-0.5-0.2-0.5-0.5S5.7,15,6,15z"/>
<path class="st1" d="M16,13.5c0,0.3-0.2,0.5-0.5,0.5h-4c-0.3,0-0.5-0.2-0.5-0.5s0.2-0.5,0.5-0.5h4C15.8,13,16,13.2,16,13.5z
	 M19.8,19.8c-0.2,0.2-0.5,0.2-0.7,0L16.3,17c-0.8,0.6-1.7,1-2.8,1c-1.6,0-2.9-0.8-3.7-2H9c-0.3,0-0.5-0.2-0.5-0.5S8.7,15,9,15h0.3
	l0,0C9.1,14.5,9,14,9,13.5C9,11,11,9,13.5,9s4.5,2,4.5,4.5c0,1.1-0.4,2-1,2.8l2.8,2.8C20.1,19.3,20.1,19.6,19.8,19.8z M17,13.5
	c0-1.9-1.6-3.5-3.5-3.5S10,11.6,10,13.5s1.6,3.5,3.5,3.5S17,15.4,17,13.5z M10,5h1c0.3,0,0.5-0.2,0.5-0.5S11.3,4,11,4h-1
	C9.7,4,9.5,4.2,9.5,4.5S9.7,5,10,5z M13,5h1c0.3,0,0.5-0.2,0.5-0.5S14.3,4,14,4h-1c-0.3,0-0.5,0.2-0.5,0.5S12.7,5,13,5z M4.5,11.5
	C4.2,11.5,4,11.7,4,12v1c0,0.3,0.2,0.5,0.5,0.5S5,13.3,5,13v-1C5,11.7,4.8,11.5,4.5,11.5z M4.5,14.5C4.2,14.5,4,14.7,4,15v0.5
	C4,15.8,4.2,16,4.5,16S5,15.8,5,15.5V15C5,14.7,4.8,14.5,4.5,14.5z M15.5,8.5C15.8,8.5,16,8.3,16,8V7c0-0.3-0.2-0.5-0.5-0.5
	S15,6.7,15,7v1C15,8.3,15.2,8.5,15.5,8.5z M15.5,5.5C15.8,5.5,16,5.3,16,5V4.5C16,4.2,15.8,4,15.5,4S15,4.2,15,4.5V5
	C15,5.3,15.2,5.5,15.5,5.5z M8,4H7C6.7,4,6.5,4.2,6.5,4.5S6.7,5,7,5h1c0.3,0,0.5-0.2,0.5-0.5S8.3,4,8,4z M4.5,8.5C4.2,8.5,4,8.7,4,9
	v1c0,0.3,0.2,0.5,0.5,0.5S5,10.3,5,10V9C5,8.7,4.8,8.5,4.5,8.5z M7,15H6c-0.3,0-0.5,0.2-0.5,0.5S5.7,16,6,16h1
	c0.3,0,0.5-0.2,0.5-0.5S7.3,15,7,15z M5,4H4.5C4.2,4,4,4.2,4,4.5S4.2,5,4.5,5H5c0.3,0,0.5-0.2,0.5-0.5S5.3,4,5,4z M4.5,5.5
	C4.2,5.5,4,5.7,4,6v1c0,0.3,0.2,0.5,0.5,0.5S5,7.3,5,7V6C5,5.7,4.8,5.5,4.5,5.5z"/>
</svg>
