<?xml version="1.0" encoding="utf-8"?>
<!-- Generator: Adobe Illustrator 26.2.1, SVG Export Plug-In . SVG Version: 6.00 Build 0)  -->
<svg version="1.1" id="Layer_1" xmlns="http://www.w3.org/2000/svg" xmlns:xlink="http://www.w3.org/1999/xlink" x="0px" y="0px"
	 viewBox="0 0 64 48" style="enable-background:new 0 0 64 48;" xml:space="preserve">
<style type="text/css">
	.st0{fill:#F0EDFF;}
	.st1{fill:#AD9EBE;}
	.st2{fill:#F6F7FC;}
	.st3{fill:#D1D1D1;}
	.st4{fill:#9E83EA;}
</style>
<g>
	<path class="st0" d="M59,5v34c0,2.2-1.8,4-4,4H15c0,1.7,1.4,3,3.1,3h40.9c1.7,0,3.1-1.4,3.1-3.1V8.1C62,6.4,60.7,5,59,5z"/>
	<path class="st1" d="M58.9,4L58.9,4c0,0.3,0.1,0.7,0.1,1v0c1.7,0,3,1.4,3,3.1v34.8c0,1.7-1.4,3.1-3.1,3.1H18.1c-1.7,0-3-1.3-3.1-3
		h0c-0.3,0-0.7-0.1-1-0.1v0.1c0,2.3,1.8,4.1,4.1,4.1h40.9c2.2,0,4.1-1.8,4.1-4.1V8.1C63,5.8,61.2,4,58.9,4z"/>
	<path class="st2" d="M54.6,1H15c-2.2,0-4,1.8-4,3.9v15.2c2.2-2.6,5.5-4.3,9.2-4.3c6.6,0,12,5.4,12,12c0,6.6-5.4,12-12,12
		c-1.9,0-3.7-0.4-5.3-1.2L14.5,39l-2.3,2.3c0.7,0.7,1.7,1.1,2.7,1.1h39.6c2.2,0,4-1.8,4-3.9V4.9C58.5,2.8,56.8,1,54.6,1z"/>
	<path class="st3" d="M55,1H15c-2.2,0-4,1.8-4,4v15.2c0.3-0.4,0.6-0.7,1-1V10h4v6.6c0.3-0.1,0.7-0.2,1-0.3V10h13v11
		c0.4,0.5,0.7,1.1,1,1.7V10h13v32H31v-9c-0.3,0.6-0.6,1.2-1,1.7V42H17v-2.6c-0.3-0.1-0.7-0.2-1-0.3V42h-1c-0.9,0-1.8-0.4-2.3-1.1
		L12,41.6c0.7,0.9,1.8,1.4,3,1.4h40c2.2,0,4-1.8,4-4V5C59,2.8,57.2,1,55,1z M16,2v7h-4V5c0-1.7,1.3-3,3-3L16,2C16,2,16,2,16,2z
		 M30,9H17V2c0,0,0,0,0,0h13V9z M44,9H31V2h13V9z M58,39c0,1.7-1.3,3-3,3H45V10h13V39z M58,9H45V2h10c1.7,0,3,1.3,3,3V9z"/>
	<g id="Group_164299" transform="translate(-0.223)">
		<path class="st4" d="M20.4,17c-6,0-10.8,4.9-10.8,10.8c0,2.4,0.8,4.7,2.2,6.5L10.1,36l2.1,2.1l1.7-1.7c1.8,1.4,4.1,2.2,6.5,2.2
			c6,0,10.8-4.9,10.8-10.8C31.2,21.9,26.4,17,20.4,17z M20.4,37.7c-5.4,0-9.8-4.4-9.8-9.8c0-5.4,4.4-9.8,9.8-9.8s9.8,4.4,9.8,9.8
			C30.2,33.2,25.8,37.7,20.4,37.7z M10.2,36c-0.6-0.6-1.6-0.6-2.2,0l-5.9,5.9c-1.2,1.2-1.2,3,0,4.2C2.6,46.7,3.4,47,4.2,47
			c0.8,0,1.5-0.3,2.1-0.9l5.9-5.9c0.6-0.6,0.6-1.6,0-2.2L10.2,36z M11.5,39.5l-5.9,5.9c-0.7,0.7-2,0.7-2.8,0c-0.8-0.8-0.8-2,0-2.8
			l5.9-5.9c0.1-0.1,0.2-0.2,0.4-0.2s0.3,0.1,0.4,0.2l2,2C11.7,39,11.7,39.3,11.5,39.5z M19.9,20.2c0.1,0.1,0.2,0.2,0.2,0.3
			c0,0.3-0.2,0.5-0.4,0.6l-0.1,0c-1.3,0.2-2.6,0.8-3.6,1.7c-1,0.9-1.6,2.2-1.7,3.6l0,0c0,0.2-0.1,0.3-0.2,0.4
			c-0.2,0.1-0.4,0.1-0.6,0c-0.1-0.1-0.2-0.2-0.2-0.4c0.1-1.6,0.8-3.1,2-4.3c1.1-1.2,2.6-1.9,4.3-2c0,0,0,0,0.1,0
			C19.7,20.1,19.8,20.1,19.9,20.2z"/>
	</g>
</g>
</svg>
