<?xml version="1.0" encoding="utf-8"?>
<!-- Generator: Adobe Illustrator 26.0.3, SVG Export Plug-In . SVG Version: 6.00 Build 0)  -->
<svg version="1.1" id="Layer_1" xmlns="http://www.w3.org/2000/svg" xmlns:xlink="http://www.w3.org/1999/xlink" x="0px" y="0px"
	 viewBox="0 0 18 12" style="enable-background:new 0 0 18 12;" xml:space="preserve">
<style type="text/css">
	.st0{fill:#404D61;}
</style>
<path class="st0" d="M16.3,5.2H3.7l3.1-3c0,0,0,0,0,0c0.3-0.3,0.2-0.7,0-1C6.5,0.9,6,0.9,5.7,1.2L1.2,5.5c0,0,0,0,0,0
	c-0.3,0.3-0.2,0.7,0,1l4.5,4.3c0.3,0.3,0.8,0.3,1.1,0c0,0,0,0,0,0c0.3-0.3,0.2-0.7,0-1L3.5,6.7h12.7c0.4,0,0.7-0.3,0.7-0.8
	S16.7,5.2,16.3,5.2z"/>
</svg>
