<?xml version="1.0" encoding="utf-8"?>
<!-- Generator: Adobe Illustrator 26.0.1, SVG Export Plug-In . SVG Version: 6.00 Build 0)  -->
<svg version="1.1" id="icon_Duplicate" xmlns="http://www.w3.org/2000/svg" xmlns:xlink="http://www.w3.org/1999/xlink" x="0px"
	 y="0px" viewBox="0 0 17 18" style="enable-background:new 0 0 17 18;" xml:space="preserve">
<style type="text/css">
	.st0{fill:#4A4A4A;}
</style>
<g>
	<path class="st0" d="M12.8,5C12.9,5,13,5.1,13,5.4v9.3c0,0.2-0.1,0.4-0.2,0.4H6.2C6.1,15,6,14.9,6,14.6V5.4C6,5.1,6.1,5,6.2,5H12.8
		 M11.5,2h-8C3.2,2,3,2.2,3,2.5v10C3,12.8,3.2,13,3.5,13S4,12.8,4,12.5V3h7.5C11.8,3,12,2.8,12,2.5S11.8,2,11.5,2L11.5,2z M6.2,4
		C5.6,4,5,4.6,5,5.4v9.3C5,15.4,5.6,16,6.2,16l0,0h6.5c0.7,0,1.2-0.6,1.2-1.4V5.4C14,4.6,13.4,4,12.8,4l0,0H6.2L6.2,4L6.2,4z"/>
</g>
</svg>
