<?xml version="1.0" encoding="utf-8"?>
<!-- Generator: Adobe Illustrator 24.2.1, SVG Export Plug-In . SVG Version: 6.00 Build 0)  -->
<svg version="1.1" id="Layer_1" xmlns="http://www.w3.org/2000/svg" xmlns:xlink="http://www.w3.org/1999/xlink" x="0px" y="0px"
	 viewBox="0 0 20 20" style="enable-background:new 0 0 20 20;" xml:space="preserve">
<style type="text/css">
	.st0{fill:#4A4A4A;}
	.st1{fill:#797E8D;}
	.st2{fill:none;}
	.st3{fill:#C73431;}
</style>
<path class="st3" d="M10,4c-3.3,0-6,2.7-6,6s2.7,6,6,6s6-2.7,6-6S13.3,4,10,4z M10,14c-0.6,0-1-0.4-1-1s0.4-1,1-1s1,0.4,1,1
	S10.6,14,10,14z M11,10c0,0.6-0.4,1-1,1s-1-0.4-1-1V7c0-0.6,0.4-1,1-1s1,0.4,1,1V10z"/>
</svg>
