<?xml version="1.0" encoding="utf-8"?>
<!-- Generator: Adobe Illustrator 24.2.1, SVG Export Plug-In . SVG Version: 6.00 Build 0)  -->
<svg version="1.1" id="Layer_1" xmlns="http://www.w3.org/2000/svg" xmlns:xlink="http://www.w3.org/1999/xlink" x="0px" y="0px"
	 viewBox="0 0 32 32" style="enable-background:new 0 0 32 32;" xml:space="preserve">
<style type="text/css">
	.st0{fill:#4A4A4A;}
	.st1{fill:#050709;}
	.st2{fill:none;}
</style>
<path id="Path_148128" class="st0" d="M-483-65.6c-6.1,0-11,4.9-11,11s4.9,11,11,11s11-4.9,11-11S-476.9-65.6-483-65.6z M-483-44.5
	c-5.6,0-10.1-4.5-10.1-10.1s4.5-10.1,10.1-10.1s10.1,4.5,10.1,10.1l0,0C-472.9-49-477.4-44.5-483-44.5z"/>
<path id="Rectangle_147869" class="st0" d="M488.5,81.4h11c0.3,0,0.5,0.2,0.5,0.5l0,0c0,0.3-0.2,0.5-0.5,0.5h-11
	c-0.3,0-0.5-0.2-0.5-0.5l0,0C488,81.6,488.2,81.4,488.5,81.4z"/>
<path id="Rectangle_147870" class="st0" d="M490.5,85.4h7c0.3,0,0.5,0.2,0.5,0.5l0,0c0,0.3-0.2,0.5-0.5,0.5h-7
	c-0.3,0-0.5-0.2-0.5-0.5l0,0C490,85.6,490.2,85.4,490.5,85.4z"/>
<path id="Rectangle_147871" class="st0" d="M492.5,89.4h3c0.3,0,0.5,0.2,0.5,0.5l0,0c0,0.3-0.2,0.5-0.5,0.5h-3
	c-0.3,0-0.5-0.2-0.5-0.5l0,0C492,89.6,492.2,89.4,492.5,89.4z"/>
<path class="st1" d="M16,5C9.9,5,5,9.9,5,16c0,6.1,4.9,11,11,11s11-4.9,11-11C27,9.9,22.1,5,16,5z M16,26.1
	c-5.5,0-10.1-4.7-10.1-10.2S10.5,5.8,16,5.8S26.1,10.5,26.1,16S21.5,26.1,16,26.1z"/>
<g id="Group_163102" transform="translate(-978 -141)">
	<g id="Group_163103" transform="translate(76 12.5)">
		<rect id="Rectangle_147951" x="910" y="136.5" class="st2" width="16" height="16"/>
		<path id="Union_5" class="st1" d="M913,150.5c-0.6,0-1-0.4-1-1v-6c0-0.6,0.4-1,1-1h3v-3c0-0.6,0.4-1,1-1h6c0.6,0,1,0.4,1,1v6
			c0,0.6-0.4,1-1,1h-3v3c0,0.6-0.4,1-1,1H913z M913,149.5h6v-3h-2c-0.6,0-1-0.4-1-1v-2h-3V149.5z M923,145.5v-6h-6v3h2
			c0.6,0,1,0.4,1,1v2H923z M917,145.5h2v-2h-2V145.5z"/>
	</g>
</g>
</svg>
