<?xml version="1.0" encoding="utf-8"?>
<!-- Generator: Adobe Illustrator 24.2.1, SVG Export Plug-In . SVG Version: 6.00 Build 0)  -->
<svg version="1.1" id="Layer_1" xmlns="http://www.w3.org/2000/svg" xmlns:xlink="http://www.w3.org/1999/xlink" x="0px" y="0px"
	 viewBox="0 0 24 24" style="enable-background:new 0 0 24 24;" xml:space="preserve">
<style type="text/css">
	.st0{fill:#5900D3;}
</style>
<path class="st0" d="M13,20c0,0.6-0.4,1-1,1H4c-0.6,0-1-0.4-1-1s0.4-1,1-1h8C12.6,19,13,19.4,13,20z M12,15H4c-0.6,0-1,0.4-1,1
	s0.4,1,1,1h8c0.6,0,1-0.4,1-1S12.6,15,12,15z M15.9,6.2C15.7,6.6,13,12,13,12H4c-0.6,0-1-0.4-1-1V4c0-0.6,0.4-1,1-1h9
	c0.6,0,1,0.4,1,1c0,0.4,0,0.7,0,1h1C15.8,5,16.2,5.6,15.9,6.2z M4,8.5L5,6c0.2-0.6,0.4-1,1-1h7c0-0.3,0-0.6,0-1H4V8.5z M14.9,6H6
	c0,0,0,0.1-0.1,0.3v0.1L4,11h8.3c0.1-0.1,0.2-0.3,0.3-0.5C13.2,9.3,14.5,6.9,14.9,6z M19,8h-1.5C17.2,8,17,8.2,17,8.5S17.2,9,17.5,9
	H19c0.6,0,1,0.4,1,1v5.7c0,0.6-0.4,1.3-1,1.3h-2.3l1.6-1.6c0.2-0.2,0.2-0.5,0-0.7s-0.5-0.2-0.7,0l-2.5,2.5c-0.2,0.2-0.2,0.5,0,0.7
	l2.5,2.5c0.2,0.2,0.5,0.2,0.7,0s0.2-0.5,0-0.7L16.7,18H19c1.1,0,2-1,2-2.2V10C21,8.9,20.1,8,19,8z"/>
</svg>
