<?xml version="1.0" encoding="utf-8"?>
<!-- Generator: Adobe Illustrator 24.2.1, SVG Export Plug-In . SVG Version: 6.00 Build 0)  -->
<svg version="1.1" id="edit-con_copy" xmlns="http://www.w3.org/2000/svg" xmlns:xlink="http://www.w3.org/1999/xlink" x="0px"
	 y="0px" viewBox="0 0 32 40" style="enable-background:new 0 0 32 40;" xml:space="preserve">
<style type="text/css">
	.st0{fill:#C73431;}
	.st1{fill:#FFFFFF;}
</style>
<path class="st0" d="M8,26.5c0,5,4,9,9,9s9-4,9-9s-4-9-9-9S8,21.5,8,26.5z M12.8,20.9c1.2-0.9,2.7-1.4,4.2-1.4c3.9,0,7,3.1,7,7
	c0,1.5-0.5,3-1.4,4.2L12.8,20.9z M10,26.5c0-1.5,0.5-3,1.4-4.2l9.8,9.8C20,33,18.5,33.5,17,33.5C13.1,33.5,10,30.3,10,26.5z"/>
<polygon class="st1" points="7,20.2 7,4 18.6,15.7 11.6,15.7 11.4,15.9 "/>
<polygon points="8,6.3 8,17.5 11,14.6 11.1,14.5 16.2,14.5 "/>
</svg>
