<?xml version="1.0" encoding="utf-8"?>
<!-- Generator: Adobe Illustrator 24.2.1, SVG Export Plug-In . SVG Version: 6.00 Build 0)  -->
<svg version="1.1" id="Layer_1" xmlns="http://www.w3.org/2000/svg" xmlns:xlink="http://www.w3.org/1999/xlink" x="0px" y="0px"
	 viewBox="0 0 20 20" style="enable-background:new 0 0 20 20;" xml:space="preserve">
<style type="text/css">
	.st0{fill:#797E8D;}
</style>
<path class="st0" d="M12.8,3.8c-2.3-2.3-6.1-2.3-8.5,0s-2.3,6.1,0,8.5c2.1,2.1,5.4,2.3,7.7,0.6c0,0,0,0.1,0,0.1l4.2,4.2
	c0.4,0.4,1,0.4,1.4,0c0.4-0.4,0.4-1,0-1.4l-4.2-4.2c0,0-0.1,0-0.1,0C15.1,9.2,14.9,5.9,12.8,3.8z M11.4,10.9c-1.6,1.6-4.1,1.6-5.7,0
	s-1.6-4.1,0-5.7s4.1-1.6,5.7,0S12.9,9.3,11.4,10.9z"/>
</svg>
