<?xml version="1.0" encoding="utf-8"?>
<!-- Generator: Adobe Illustrator 24.2.1, SVG Export Plug-In . SVG Version: 6.00 Build 0)  -->
<svg version="1.1" id="Layer_1" xmlns="http://www.w3.org/2000/svg" xmlns:xlink="http://www.w3.org/1999/xlink" x="0px" y="0px"
	 viewBox="0 0 20 20" style="enable-background:new 0 0 20 20;" xml:space="preserve">
<style type="text/css">
	.st0{fill:#4A4A4A;}
	.st1{fill:#fff;}
	.st2{fill:none;}
	.st3{fill:#C73431;}
</style>
<path class="st1" d="M10.5,3.9c3.1,0,5.6,2.5,5.6,5.6s-2.5,5.6-5.6,5.6s-5.6-2.5-5.6-5.6S7.4,3.9,10.5,3.9 M10.5,3
	C6.9,3,4,5.9,4,9.5S6.9,16,10.5,16S17,13.1,17,9.5S14.1,3,10.5,3L10.5,3z M10.2,11l1.7,1c0.2,0.1,0.5,0.1,0.7-0.2l0,0
	c0.1-0.2,0.1-0.5-0.2-0.7l-1.7-1c-0.2-0.1-0.5-0.1-0.7,0.2v0C9.9,10.5,10,10.8,10.2,11z M11,10.5v-4C11,6.2,10.8,6,10.5,6h0
	C10.2,6,10,6.2,10,6.5v4c0,0.3,0.2,0.5,0.5,0.5h0C10.8,11,11,10.8,11,10.5z"/>
</svg>
