<svg xmlns="http://www.w3.org/2000/svg" xmlns:xlink="http://www.w3.org/1999/xlink" version="1.1" style="enable-background:new 0 0 22 22;" xml:space="preserve" width="22" height="22"><rect id="backgroundrect" width="100%" height="100%" x="0" y="0" fill="none" stroke="none"/>
<style type="text/css">
	.st0{fill:#4A4A4A;}
</style>





<g class="currentLayer" style=""><title>Layer 1</title><path id="Path_148128" class="st0" d="M-483-65.6c-6.1,0-11,4.9-11,11s4.9,11,11,11s11-4.9,11-11S-476.9-65.6-483-65.6z M-483-44.5  c-5.6,0-10.1-4.5-10.1-10.1s4.5-10.1,10.1-10.1s10.1,4.5,10.1,10.1l0,0C-472.9-49-477.4-44.5-483-44.5z"/><path id="Rectangle_147869" class="st0" d="M488.5,81.4h11c0.3,0,0.5,0.2,0.5,0.5l0,0c0,0.3-0.2,0.5-0.5,0.5h-11  c-0.3,0-0.5-0.2-0.5-0.5l0,0C488,81.6,488.2,81.4,488.5,81.4z"/><path id="Rectangle_147870" class="st0" d="M490.5,85.4h7c0.3,0,0.5,0.2,0.5,0.5l0,0c0,0.3-0.2,0.5-0.5,0.5h-7  c-0.3,0-0.5-0.2-0.5-0.5l0,0C490,85.6,490.2,85.4,490.5,85.4z"/><path id="Rectangle_147871" class="st0" d="M492.5,89.4h3c0.3,0,0.5,0.2,0.5,0.5l0,0c0,0.3-0.2,0.5-0.5,0.5h-3  c-0.3,0-0.5-0.2-0.5-0.5l0,0C492,89.6,492.2,89.4,492.5,89.4z"/><path class="st0 selected" d="M10.974359035491943,1.07692289352417 c5.5,0 10,4.5 10,10 s-4.5,10 -10,10 S0.9743590354919434,16.57692289352417 0.9743590354919434,11.07692289352417 S5.474359035491943,1.07692289352417 10.974359035491943,1.07692289352417 M10.974359035491943,0.07692289352416992 C4.874359035491944,0.07692289352416992 -0.02564096450805664,4.97692289352417 -0.02564096450805664,11.07692289352417 s4.9,11 11,11 s11,-4.9 11,-11 S17.074359035491945,0.07692289352416992 10.974359035491943,0.07692289352416992 L10.974359035491943,0.07692289352416992 zM12.874359035491942,6.776922893524169 c-1.7000000000000002,-1.7000000000000002 -4.6,-1.7000000000000002 -6.4,0 s-1.7000000000000002,4.6 0,6.4 c1.6,1.6 4.1,1.7000000000000002 5.8,0.5 v0.1 l3.2,3.2 c0.30000000000000004,0.30000000000000004 0.8,0.30000000000000004 1.1,0 s0.30000000000000004,-0.8 0,-1.1 l-3.2,-3.2 h-0.1 C14.574359035491945,10.87692289352417 14.474359035491943,8.37692289352417 12.874359035491942,6.776922893524169 zM11.774359035491944,12.176922893524171 c-1.2,1.2 -3.1,1.2 -4.3,0 s-1.2,-3.1 0,-4.3 s3.1,-1.2 4.3,0 S12.974359035491943,10.97692289352417 11.774359035491944,12.176922893524171 z" id="svg_1"/></g></svg>