<?xml version="1.0" encoding="utf-8"?>
<!-- Generator: Adobe Illustrator 24.2.1, SVG Export Plug-In . SVG Version: 6.00 Build 0)  -->
<svg version="1.1" id="Layer_1" xmlns="http://www.w3.org/2000/svg" xmlns:xlink="http://www.w3.org/1999/xlink" x="0px" y="0px"
	 viewBox="0 0 20 20" style="enable-background:new 0 0 20 20;" xml:space="preserve">
<style type="text/css">
	.st0{fill:none;}
	.st1{fill:#797E8D;}
</style>
<g id="Icon_material-mode-comment" transform="translate(349 384.52)">
	<path class="st0" d="M-333-378.3c0-0.7-0.5-1.2-1.2-1.2h-9.6c-0.7,0-1.2,0.5-1.2,1.1v6.6c0,0.8,0.5,1.3,1.2,1.3h8.4l2.4,2.4
		L-333-378.3z"/>
</g>
<g id="Path_148229">
	<path class="st1" d="M8.5,16.6c-0.1,0-0.1,0-0.2,0C8.1,16.5,8,16.3,8,16L9,11H4.7c-0.2,0-0.4-0.1-0.5-0.3c-0.1-0.2,0-0.4,0.1-0.5
		l7-7.3c0.2-0.2,0.4-0.2,0.6-0.1c0.2,0.1,0.3,0.3,0.3,0.6L11,8h3.5c0.2,0,0.4,0.1,0.4,0.3c0.1,0.2,0.1,0.4,0,0.5l-5.9,7.6
		C8.8,16.6,8.7,16.6,8.5,16.6z M6,10h3.4c0.2,0,0.3,0.1,0.4,0.2c0.1,0.1,0.1,0.3,0.1,0.4L9.4,14l4.1-5l-3-0.1
		c-0.2,0-0.3-0.1-0.4-0.2C10,8.6,10,8.5,10,8.3l0.7-3.4L6,10z"/>
</g>
</svg>
