<?xml version="1.0" encoding="utf-8"?>
<!-- Generator: Adobe Illustrator 24.2.1, SVG Export Plug-In . SVG Version: 6.00 Build 0)  -->
<svg version="1.1" id="Icone_share" xmlns="http://www.w3.org/2000/svg" xmlns:xlink="http://www.w3.org/1999/xlink" x="0px"
	 y="0px" viewBox="0 0 40 40" style="enable-background:new 0 0 40 40;" xml:space="preserve">
<style type="text/css">
	.st0{fill:#B5DCED;}
	.st1{fill:#D1D1D1;}
</style>
<path id="Rectangle_147869" class="st0" d="M11,31.5v-10c0-0.3,0.2-0.5,0.5-0.5l0,0c0.3,0,0.5,0.2,0.5,0.5v10c0,0.3-0.2,0.5-0.5,0.5
	l0,0C11.2,32,11,31.8,11,31.5z"/>
<path id="Rectangle_148356" class="st0" d="M19,31.5v-17c0-0.3,0.2-0.5,0.5-0.5l0,0c0.3,0,0.5,0.2,0.5,0.5v17c0,0.3-0.2,0.5-0.5,0.5
	l0,0C19.2,32,19,31.8,19,31.5z"/>
<path id="Rectangle_148357" class="st0" d="M27,31.5v-23C27,8.2,27.2,8,27.5,8l0,0C27.8,8,28,8.2,28,8.5v23c0,0.3-0.2,0.5-0.5,0.5
	l0,0C27.2,32,27,31.8,27,31.5z"/>
<path class="st1" d="M36.5,3C36.8,3,37,3.2,37,3.5v33c0,0.3-0.2,0.5-0.5,0.5h-33C3.2,37,3,36.8,3,36.5v-33C3,3.2,3.2,3,3.5,3H36.5
	 M36.5,2h-33C2.7,2,2,2.7,2,3.5v33C2,37.3,2.7,38,3.5,38h33c0.8,0,1.5-0.7,1.5-1.5v-33C38,2.7,37.3,2,36.5,2L36.5,2z"/>
</svg>
