<?xml version="1.0" encoding="utf-8"?>
<!-- Generator: Adobe Illustrator 24.2.1, SVG Export Plug-In . SVG Version: 6.00 Build 0)  -->
<svg version="1.1" id="Layer_1" xmlns="http://www.w3.org/2000/svg" xmlns:xlink="http://www.w3.org/1999/xlink" x="0px" y="0px"
	 viewBox="0 0 16 16" style="enable-background:new 0 0 16 16;" xml:space="preserve">
<style type="text/css">
	.st0{fill:#FFFFFF;}
	.st1{fill:#101010;}
</style>
<path id="Rectangle_147779" class="st0" d="M5,7h6c0.6,0,1,0.4,1,1l0,0c0,0.6-0.4,1-1,1H5C4.4,9,4,8.6,4,8l0,0C4,7.4,4.4,7,5,7z"/>
<path class="st1" d="M4,15H1v-3l8-8l3,3L4,15z M9,6l-6,6v1h1l6-6L9,6z M14.3,3.7l-2.1-2.1c-0.3-0.3-0.7-0.2-1.1,0.1L10,3l3,3
	l1.2-1.2C14.5,4.5,14.6,4,14.3,3.7z"/>
</svg>
