<?xml version="1.0" encoding="utf-8"?>
<!-- Generator: Adobe Illustrator 26.1.0, SVG Export Plug-In . SVG Version: 6.00 Build 0)  -->
<svg version="1.1" id="Icon_Print" xmlns="http://www.w3.org/2000/svg" xmlns:xlink="http://www.w3.org/1999/xlink" x="0px" y="0px"
	 viewBox="0 0 16 16" style="enable-background:new 0 0 16 16;" xml:space="preserve">
<style type="text/css">
	.st0{fill:#4A4A4A;}
</style>
<path id="Union_36" class="st0" d="M4,15c-0.6,0-1-0.4-1-1v-2c0-0.6,0.4-1,1-1h8c0.6,0,1,0.4,1,1h1V7H2v5h1v1H2c-0.6,0-1-0.4-1-1V7
	c0-0.6,0.4-1,1-1h1V2c0-0.6,0.4-1,1-1h6c0,0,3,3,3,3v2h1c0.6,0,1,0.4,1,1v5c0,0.6-0.4,1-1,1h-1v1c0,0.6-0.4,1-1,1H4z M4,14h8v-2H4
	V14z M12,6V4.4C11.4,3.8,10.2,2.6,9.6,2H4v4H12z"/>
</svg>
