<?xml version="1.0" encoding="utf-8"?>
<!-- Generator: Adobe Illustrator 26.0.3, SVG Export Plug-In . SVG Version: 6.00 Build 0)  -->
<svg version="1.1" id="icon_Time_Range_dropdown" xmlns="http://www.w3.org/2000/svg" xmlns:xlink="http://www.w3.org/1999/xlink"
	 x="0px" y="0px" viewBox="0 0 24 24" style="enable-background:new 0 0 24 24;" xml:space="preserve">
<style type="text/css">
	.st0{fill:none;}
	.st1{fill:#404D61;}
</style>
<rect id="Rectangle_148046" y="0" class="st0" width="24" height="24"/>
<g>
	<path class="st1" d="M18.4,6H16V4.5C16,4.2,15.8,4,15.5,4S15,4.2,15,4.5V6H9V4.5C9,4.2,8.8,4,8.6,4c0,0,0,0-0.1,0
		C8.2,4,8,4.2,8,4.4c0,0,0,0,0,0.1V6H5.6C4.7,6,4,6.6,4,7.5v11C4,19.4,4.7,20,5.6,20h12.8c0.9,0,1.6-0.6,1.6-1.5v-11
		C20,6.6,19.3,6,18.4,6z M19,18.5c0,0.3-0.3,0.5-0.6,0.5H5.6C5.3,19,5,18.8,5,18.5V11h14V18.5z M19,10H5V7.5C5,7.2,5.3,7,5.6,7H8
		v1.5C8,8.8,8.2,9,8.4,9c0,0,0,0,0.1,0C8.8,9,9,8.8,9,8.6c0,0,0,0,0-0.1V7h6v1.5C15,8.8,15.2,9,15.5,9S16,8.8,16,8.5V7h2.4
		C18.7,7,19,7.2,19,7.5V10z"/>
	<path class="st1" d="M7.6,16.9c0.2,0.2,0.5,0.2,0.7,0c0.2-0.2,0.2-0.5,0-0.7l-0.6-0.6h8.5l-0.6,0.6c-0.2,0.2-0.2,0.5,0,0.7
		c0.2,0.2,0.5,0.2,0.7,0l1.5-1.4c0.2-0.2,0.2-0.5,0-0.7c0,0,0,0-0.1,0c0,0,0,0,0-0.1l-1.5-1.4c-0.2-0.2-0.5-0.2-0.7,0
		c-0.2,0.2-0.2,0.5,0,0.7l0.7,0.7H7.8l0.7-0.7c0.2-0.2,0.2-0.5,0-0.7c-0.2-0.2-0.5-0.2-0.7,0l-1.5,1.4c0,0,0,0,0,0.1c0,0,0,0-0.1,0
		c-0.2,0.2-0.2,0.5,0,0.7L7.6,16.9z"/>
</g>
</svg>
