<?xml version="1.0" encoding="utf-8"?>
<!-- Generator: Adobe Illustrator 24.2.1, SVG Export Plug-In . SVG Version: 6.00 Build 0)  -->
<svg version="1.1" id="Layer_1" xmlns="http://www.w3.org/2000/svg" xmlns:xlink="http://www.w3.org/1999/xlink" x="0px" y="0px"
	 viewBox="0 0 20 20" style="enable-background:new 0 0 20 20;" xml:space="preserve">
<style type="text/css">
	.st0{fill:#1362E8;}
</style>
<path id="Icon_material-attach-file" class="st0" d="M13.1,7v6c0,1.2-1.4,2.2-2.6,2.2s-2.6-1-2.6-2.2V6.2c0-0.8,1-1.3,1.7-1.3
	c0.7,0,1.5,0.6,1.5,1.3v5.4c0,0.3-0.2,0.5-0.5,0.5S10,11.9,10,11.6V7.2H9v4.4c0,0.8,0.7,1.4,1.4,1.4c0.8,0,1.5-0.6,1.5-1.3
	c0,0,0,0,0-0.1V6.2C12,5,10.7,4,9.5,4S7,5,7,6.2V13c0,1.7,1.8,3,3.4,3s3.5-1.2,3.5-2.9V7H13.1z"/>
</svg>
