<?xml version="1.0" encoding="utf-8"?>
<!-- Generator: Adobe Illustrator 26.0.1, SVG Export Plug-In . SVG Version: 6.00 Build 0)  -->
<svg version="1.1" id="Button_icon" xmlns="http://www.w3.org/2000/svg" xmlns:xlink="http://www.w3.org/1999/xlink" x="0px"
	 y="0px" viewBox="0 0 16 16" style="enable-background:new 0 0 16 16;" xml:space="preserve">
<style type="text/css">
	.st0{fill:none;}
	.st1{fill:#4A4A4A;}
</style>
<circle id="Ellipse_172" class="st0" cx="12" cy="4" r="12"/>
<g id="Group_161872" transform="translate(-901 -127)">
	<rect id="Rectangle_147951" x="901" y="127" class="st0" width="16" height="16"/>
	<g id="Group_161922">
		<path id="Path_148141" class="st1" d="M909.5,141h-6c-0.3,0-0.5-0.2-0.5-0.5v-11c0-0.3,0.2-0.5,0.5-0.5h6c0.3,0,0.5,0.2,0.5,0.5
			v3.5c0,0.3-0.2,0.5-0.5,0.5s-0.5-0.2-0.5-0.5v-3h-5v10h5v-3c0-0.3,0.2-0.5,0.5-0.5s0.5,0.2,0.5,0.5v3.5
			C910,140.8,909.8,141,909.5,141z"/>
		<path id="Path_148129" class="st1" d="M914.8,135.4L914.8,135.4L914.8,135.4L914.8,135.4L914.8,135.4L914.8,135.4
			C914.9,135.3,914.9,135.3,914.8,135.4c0.1-0.1,0.1-0.1,0.1-0.1c0,0,0,0,0,0l0,0c0,0,0-0.1,0-0.1c0,0,0-0.1,0-0.1v0v0
			c0,0,0-0.1,0-0.1c0,0,0-0.1,0-0.1v0c0,0,0-0.1-0.1-0.1l0,0c0,0,0,0,0-0.1l0,0l0,0l0,0l0,0l0,0l-1.8-2c-0.2-0.2-0.5-0.2-0.7,0
			c-0.1,0.1-0.2,0.2-0.2,0.4c0,0.1,0,0.3,0.1,0.3l1,1.2h-5.8c-0.3,0-0.5,0.2-0.5,0.5s0.2,0.5,0.5,0.5h5.8l-1,1.2
			c-0.2,0.2-0.2,0.5,0,0.7c0.2,0.2,0.5,0.2,0.7,0L914.8,135.4z"/>
	</g>
</g>
</svg>
