<?xml version="1.0" encoding="utf-8"?>
<!-- Generator: Adobe Illustrator 26.0.2, SVG Export Plug-In . SVG Version: 6.00 Build 0)  -->
<svg version="1.1" id="Layer_1" xmlns="http://www.w3.org/2000/svg" xmlns:xlink="http://www.w3.org/1999/xlink" x="0px" y="0px"
	 viewBox="0 0 32 32" style="enable-background:new 0 0 32 32;" xml:space="preserve">
<style type="text/css">
	.st0{fill:#404D61;}
	.st1{fill:none;}
</style>
<g>
	<path class="st0" d="M17.4,16l4.3-4.3c0.4-0.4,0.4-1,0-1.4c-0.4-0.4-1-0.4-1.4,0L16,14.6l-4.3-4.3c-0.4-0.4-1-0.4-1.4,0
		c-0.4,0.4-0.4,1,0,1.4l4.3,4.3l-4.3,4.3c-0.4,0.4-0.4,1,0,1.4c0.4,0.4,1,0.4,1.4,0l4.3-4.3l4.3,4.3c0.4,0.4,1,0.4,1.4,0
		c0.4-0.4,0.4-1,0-1.4L17.4,16z"/>
	<rect class="st1" width="32" height="32"/>
</g>
</svg>
