<?xml version="1.0" encoding="utf-8"?>
<!-- Generator: Adobe Illustrator 26.0.3, SVG Export Plug-In . SVG Version: 6.00 Build 0)  -->
<svg version="1.1" id="Icon_row_selector" xmlns="http://www.w3.org/2000/svg" xmlns:xlink="http://www.w3.org/1999/xlink" x="0px"
	 y="0px" viewBox="0 0 18 19" style="enable-background:new 0 0 18 19;" xml:space="preserve">
<style type="text/css">
	.st0{fill:#4A4A4A;}
</style>
<g id="Group_162910" transform="translate(-130 -652)">
	<g id="Group_162912">
		<path class="st0" d="M145,653h-12c-1.1,0-2,0.9-2,2v13c0,1.1,0.9,2,2,2h12c1.1,0,2-0.9,2-2v-13C147,653.9,146.1,653,145,653z
			 M132,658h14v3h-14V658z M132,662h14v3h-14V662z M133,654h12c0.6,0,1,0.4,1,1v2h-14v-2C132,654.4,132.4,654,133,654z M145,669h-12
			c-0.6,0-1-0.4-1-1v-2h14v2C146,668.6,145.6,669,145,669z"/>
	</g>
</g>
</svg>
