<?xml version="1.0" encoding="utf-8"?>
<!-- Generator: Adobe Illustrator 26.1.0, SVG Export Plug-In . SVG Version: 6.00 Build 0)  -->
<svg version="1.1" id="Component_231_1" xmlns="http://www.w3.org/2000/svg" xmlns:xlink="http://www.w3.org/1999/xlink" x="0px"
	 y="0px" viewBox="0 0 16 16" style="enable-background:new 0 0 16 16;" xml:space="preserve">
<style type="text/css">
	.st0{fill:#4A4A4A;}
</style>
<path class="st0" d="M6.9,6.1c0.2,0.2,0.2,0.5,0,0.7C6.7,7,6.4,7,6.2,6.8L2,2.7v1.8C2,4.8,1.8,5,1.5,5S1,4.8,1,4.5v-3
	C1,1.2,1.2,1,1.5,1h3C4.8,1,5,1.2,5,1.5S4.8,2,4.5,2H2.7L6.9,6.1z M14.5,1h-3C11.2,1,11,1.2,11,1.5S11.2,2,11.5,2h1.8L9.1,6.1
	c-0.2,0.2-0.2,0.5,0,0.7C9.3,7,9.6,7,9.8,6.8L14,2.7v1.8C14,4.8,14.2,5,14.5,5S15,4.8,15,4.5v-3C15,1.2,14.8,1,14.5,1z M6.9,9.9
	c0.2-0.2,0.2-0.5,0-0.7C6.7,9,6.4,9,6.2,9.2L2,13.3v-1.8C2,11.2,1.8,11,1.5,11S1,11.2,1,11.5v3C1,14.8,1.2,15,1.5,15h3
	C4.8,15,5,14.8,5,14.5S4.8,14,4.5,14H2.7L6.9,9.9z M14.5,15h-3c-0.3,0-0.5-0.2-0.5-0.5s0.2-0.5,0.5-0.5h1.8L9.1,9.9
	c-0.2-0.2-0.2-0.5,0-0.7C9.3,9,9.6,9,9.8,9.2l4.2,4.1v-1.8c0-0.3,0.2-0.5,0.5-0.5s0.5,0.2,0.5,0.5v3C15,14.8,14.8,15,14.5,15z"/>
</svg>
