<?xml version="1.0" encoding="utf-8"?>
<!-- Generator: Adobe Illustrator 24.2.1, SVG Export Plug-In . SVG Version: 6.00 Build 0)  -->
<svg version="1.1" id="Layer_1" xmlns="http://www.w3.org/2000/svg" xmlns:xlink="http://www.w3.org/1999/xlink" x="0px" y="0px"
	 viewBox="0 0 32 32" style="enable-background:new 0 0 32 32;" xml:space="preserve">
<style type="text/css">
	.st0{fill:#FFFFFF;}
</style>
<path class="st0" d="M20.2,18.8L17.4,16l2.8-2.8c0.4-0.4,0.4-1,0-1.4s-1-0.4-1.4,0L16,14.6l-2.8-2.8c-0.4-0.4-1-0.4-1.4,0
	s-0.4,1,0,1.4l2.8,2.8l-2.8,2.8c-0.4,0.4-0.4,1,0,1.4s1,0.4,1.4,0l2.8-2.8l2.8,2.8c0.4,0.4,1,0.4,1.4,0
	C20.6,19.9,20.6,19.2,20.2,18.8z"/>
<path id="Icon_ionic-md-menu" d="M6,24h20v-3H6V24z M6,17h20v-3H6V17z M6,7v3h20V7H6z"/>
</svg>
