<?xml version="1.0" encoding="utf-8"?>
<!-- Generator: Adobe Illustrator 24.2.1, SVG Export Plug-In . SVG Version: 6.00 Build 0)  -->
<svg version="1.1" id="Layer_1" xmlns="http://www.w3.org/2000/svg" xmlns:xlink="http://www.w3.org/1999/xlink" x="0px" y="0px"
	 viewBox="0 0 32 32" style="enable-background:new 0 0 32 32;" xml:space="preserve">
<style type="text/css">
	.st0{fill:#4A4A4A;}
</style>
<path id="Path_148128" class="st0" d="M-483-65.6c-6.1,0-11,4.9-11,11s4.9,11,11,11s11-4.9,11-11S-476.9-65.6-483-65.6z M-483-44.5
	c-5.6,0-10.1-4.5-10.1-10.1s4.5-10.1,10.1-10.1c5.6,0,10.1,4.5,10.1,10.1l0,0C-472.9-49-477.4-44.5-483-44.5z"/>
<path id="Rectangle_147869" class="st0" d="M488.5,81.4h11c0.3,0,0.5,0.2,0.5,0.5l0,0c0,0.3-0.2,0.5-0.5,0.5h-11
	c-0.3,0-0.5-0.2-0.5-0.5l0,0C488,81.6,488.2,81.4,488.5,81.4z"/>
<path id="Rectangle_147870" class="st0" d="M490.5,85.4h7c0.3,0,0.5,0.2,0.5,0.5l0,0c0,0.3-0.2,0.5-0.5,0.5h-7
	c-0.3,0-0.5-0.2-0.5-0.5l0,0C490,85.6,490.2,85.4,490.5,85.4z"/>
<path id="Rectangle_147871" class="st0" d="M492.5,89.4h3c0.3,0,0.5,0.2,0.5,0.5l0,0c0,0.3-0.2,0.5-0.5,0.5h-3
	c-0.3,0-0.5-0.2-0.5-0.5l0,0C492,89.6,492.2,89.4,492.5,89.4z"/>
<path class="st0" d="M16,5C9.9,5,5,9.9,5,16s4.9,11,11,11s11-4.9,11-11S22.1,5,16,5z M16,26c-5.5,0-10-4.5-10-10S10.5,6,16,6
	s10,4.5,10,10S21.5,26,16,26z M15.8,14c0.2,0.2,0.2,0.5,0,0.7c-0.2,0.2-0.5,0.2-0.7,0l-2.2-2v7.8c0,0.3-0.2,0.5-0.5,0.5
	c-0.3,0-0.5-0.2-0.5-0.5v-7.8l-2.2,2c-0.1,0.1-0.2,0.1-0.3,0.1c-0.1,0-0.3-0.1-0.4-0.2c-0.2-0.2-0.2-0.5,0-0.7l3-2.8l0,0l0,0
	c0,0,0,0,0.1,0c0,0,0.1,0,0.1-0.1h0c0,0,0.1,0,0.1,0c0,0,0.1,0,0.1,0h0h0c0,0,0.1,0,0.1,0c0,0,0.1,0,0.1,0l0,0c0,0,0,0,0,0
	c0,0,0,0,0.1,0c0,0,0,0,0,0l0,0l0,0L15.8,14z M22.9,17.3c0.2,0.2,0.2,0.5,0,0.7l-3,2.8l0,0l0,0c0,0,0,0-0.1,0c0,0-0.1,0-0.1,0.1h0
	c0,0-0.1,0-0.1,0c0,0-0.1,0-0.1,0h0h0c0,0-0.1,0-0.1,0c0,0-0.1,0-0.1,0h0c0,0,0,0,0,0c0,0,0,0-0.1,0c0,0,0,0,0,0l0,0l0,0l-3-2.8
	c-0.2-0.2-0.2-0.5,0-0.7c0.2-0.2,0.5-0.2,0.7,0l2.2,2v-7.8c0-0.3,0.2-0.5,0.5-0.5c0.3,0,0.5,0.2,0.5,0.5v7.8l2.2-2
	c0.1-0.1,0.2-0.1,0.3-0.1l0,0C22.6,17.2,22.8,17.2,22.9,17.3z"/>
</svg>
