<?xml version="1.0" encoding="utf-8"?>
<!-- Generator: Adobe Illustrator 26.0.1, SVG Export Plug-In . SVG Version: 6.00 Build 0)  -->
<svg version="1.1" id="Layer_1" xmlns="http://www.w3.org/2000/svg" xmlns:xlink="http://www.w3.org/1999/xlink" x="0px" y="0px"
	 viewBox="0 0 28 14" style="enable-background:new 0 0 28 14;" xml:space="preserve">
<style type="text/css">
	.st0{fill:#5900d3;}
</style>
<path class="st0" d="M14,11c-2.2,0-4-1.8-4-4c0-2.2,1.8-4,4-4c2.2,0,4,1.8,4,4C18,9.2,16.2,11,14,11z M14,4c-1.7,0-3,1.3-3,3
	s1.3,3,3,3s3-1.3,3-3S15.7,4,14,4z M26.9,7C26,3.6,20.7,1,14,1C7.3,1,2,3.6,1.1,7h0C2,10.4,7.3,13,14,13C20.7,13,26,10.4,26.9,7
	L26.9,7z M14,12C8.2,12,3.2,9.8,2.2,7h0c1-2.8,6-5,11.8-5s10.8,2.2,11.8,5h0C24.8,9.8,19.8,12,14,12z"/>
</svg>
