<?xml version="1.0" encoding="utf-8"?>
<!-- Generator: Adobe Illustrator 24.2.1, SVG Export Plug-In . SVG Version: 6.00 Build 0)  -->
<svg version="1.1" id="Icone_share" xmlns="http://www.w3.org/2000/svg" xmlns:xlink="http://www.w3.org/1999/xlink" x="0px"
	 y="0px" viewBox="0 0 24 24" style="enable-background:new 0 0 24 24;" xml:space="preserve">
<style type="text/css">
	.st0{fill:none;}
	.st1{fill:#5900d3;}
</style>
<path class="st0" d="M9.3,19C9.1,19,9,18.9,9,18.7l0,0v-2c-0.2-0.1-0.4-0.2-0.6-0.2L7,17.9c-0.1,0.1-0.3,0.1-0.4,0l0,0l-2.4-2.4
	C4,15.3,4,15.2,4.1,15l0,0l1.4-1.4c-0.1-0.2-0.2-0.4-0.2-0.6h-2C3.1,13,3,12.9,3,12.7l0,0V9.3C3,9.1,3.1,9,3.3,9l0,0h2
	c0.1-0.2,0.2-0.4,0.2-0.6L4.1,7C4,6.9,4,6.7,4.1,6.5l0,0l2.4-2.4C6.7,4,6.8,4,7,4.1l0,0l1.4,1.4c0.2,0,0.4-0.1,0.6-0.2v-2
	C9,3.1,9.1,3,9.3,3l0,0h3.4C12.9,3,13,3.1,13,3.3l0,0v2c0.2,0.1,0.4,0.2,0.6,0.2L15,4.1c0.1-0.1,0.3-0.1,0.4,0l0,0l2.4,2.4
	C18,6.7,18,6.8,17.9,7l0,0l-1.4,1.4c0.1,0.2,0.2,0.4,0.2,0.6h2C18.9,9,19,9.1,19,9.3l0,0v3.4c0,0.2-0.1,0.3-0.3,0.3l0,0h-2
	c-0.1,0.2-0.2,0.4-0.2,0.6l1.4,1.4c0.1,0.1,0.1,0.3,0,0.4l0,0l-2.4,2.4c-0.1,0.1-0.3,0.1-0.4,0l0,0l-1.4-1.4
	c-0.2,0.1-0.4,0.2-0.6,0.2v2c0,0.2-0.1,0.3-0.3,0.3l0,0L9.3,19L9.3,19z"/>
<path class="st1" d="M13.6,16.1h7c0.3,0,0.4,0.2,0.4,0.4l0,0c0,0.3-0.2,0.5-0.5,0.5h-7c-0.3,0-0.5-0.2-0.5-0.5l0,0
	C13,16.2,13.3,16.1,13.6,16.1z M14.5,18.1h5c0.3,0,0.5,0.2,0.5,0.4l0,0c0,0.3-0.2,0.5-0.5,0.5h-5c-0.3,0-0.5-0.2-0.5-0.5l0,0
	C14,18.2,14.2,18.1,14.5,18.1z M15.4,20.1h3c0.3,0,0.6,0.2,0.6,0.4l0,0c0,0.3-0.2,0.5-0.5,0.5h-3c-0.3,0-0.5-0.2-0.5-0.5l0,0
	C15,20.2,15.2,20.1,15.4,20.1z M11,14c-1.7,0-3-1.3-3-3s1.3-3,3-3s3,1.3,3,3S12.7,14,11,14z M11,9c-1.1,0-2,0.9-2,2s0.9,2,2,2
	s2-0.9,2-2S12.1,9,11,9z M18.7,9h-2c0-0.1-0.1-0.2-0.1-0.3c0-0.1-0.1-0.2-0.1-0.3L17.9,7C18,6.9,18,6.7,17.8,6.5l-2.4-2.4
	C15.3,4,15.1,4,15,4.1l-1.4,1.4c-0.2,0-0.4-0.1-0.6-0.2v-2C13,3.1,12.9,3,12.7,3H9.3C9.1,3,9,3.1,9,3.3v2C8.8,5.4,8.6,5.5,8.4,5.5
	L7,4.1C6.9,4,6.7,4,6.5,4.1L4.1,6.5C4,6.7,4,6.9,4.1,7l1.4,1.4C5.4,8.6,5.4,8.8,5.3,9h-2C3.1,9,3,9.1,3,9.3v3.4
	C3,12.9,3.1,13,3.3,13h2c0.1,0.2,0.1,0.4,0.2,0.6L4.1,15C4,15.1,4,15.3,4.2,15.5l2.4,2.4C6.7,18,6.9,18,7,17.9l1.4-1.4
	c0.2,0.1,0.4,0.1,0.6,0.2v2C9,18.9,9.1,19,9.3,19H12v-0.9h-2V16l-1.9-0.8l-1.4,1.4l-1.4-1.4l1.4-1.4L6,12H4v-2h2l0.7-1.8L5.3,6.8
	l1.5-1.5l1.4,1.5L10,6V4h2v2l1.9,0.8l1.4-1.4l1.4,1.4l-1.4,1.4L16,10h2v2h-2l-0.8,1.9l0.2,0.1H17l-0.5-0.4c0.1-0.2,0.1-0.4,0.2-0.6
	h2c0.2,0,0.3-0.1,0.3-0.3V9.3C19,9.1,18.9,9,18.7,9z"/>
</svg>
