<?xml version="1.0" encoding="utf-8"?>
<!-- Generator: Adobe Illustrator 26.2.1, SVG Export Plug-In . SVG Version: 6.00 Build 0)  -->
<svg version="1.1" id="Layer_1" xmlns="http://www.w3.org/2000/svg" xmlns:xlink="http://www.w3.org/1999/xlink" x="0px" y="0px"
	 viewBox="0 0 47 40" style="enable-background:new 0 0 47 40;" xml:space="preserve">
<style type="text/css">
	.st0{fill:#AFAFAF;}
	.st1{fill:#F0EDFE;}
	.st2{fill:none;}
	.st3{fill:#9D82EA;}
</style>
<g id="Group_163902" transform="translate(-598 -505)">
	<path class="st0" d="M637.9,525v-1h-0.5v0h-5v-14h5c0.3,0,0.5-0.2,0.5-0.5s-0.2-0.5-0.5-0.5h-5.5c-0.3,0-0.5,0.2-0.5,0.5V524h-7.2
		v0h-0.5v1h7.7v15.5c0,0.3,0.2,0.5,0.5,0.5h5.3c0.3,0,0.5-0.2,0.5-0.5s-0.2-0.5-0.5-0.5h-4.8v-15H637.9z"/>
	<circle class="st1" cx="611.5" cy="525.5" r="12.5"/>
	<circle class="st2" cx="640.5" cy="540.5" r="3.5"/>
	<g id="Path_150456" transform="translate(423.879 267.007)">
		<path class="st2" d="M186.1,253.2c-0.6-0.4-1.5-0.2-1.8,0.5c-0.1,0.2-0.2,0.5-0.2,0.7v8.3c0,0.7,0.5,1.3,1.2,1.4
			c0.3,0,0.6-0.1,0.8-0.2l6.4-4.1c0.6-0.4,0.8-1.3,0.4-2c-0.1-0.1-0.2-0.3-0.4-0.4L186.1,253.2z"/>
		<path class="st3" d="M216.6,246c1.9,0,3.5-1.6,3.5-3.5s-1.6-3.5-3.5-3.5s-3.5,1.6-3.5,3.5S214.7,246,216.6,246z M216.6,240
			c1.4,0,2.5,1.1,2.5,2.5s-1.1,2.5-2.5,2.5s-2.5-1.1-2.5-2.5S215.2,240,216.6,240z M216.6,254c-1.9,0-3.5,1.6-3.5,3.5
			s1.6,3.5,3.5,3.5s3.5-1.6,3.5-3.5S218.6,254,216.6,254z M216.6,260c-1.4,0-2.5-1.1-2.5-2.5s1.1-2.5,2.5-2.5s2.5,1.1,2.5,2.5
			S218,260,216.6,260z M216.6,270c-1.9,0-3.5,1.6-3.5,3.5s1.6,3.5,3.5,3.5s3.5-1.6,3.5-3.5S218.6,270,216.6,270z M216.6,276
			c-1.4,0-2.5-1.1-2.5-2.5s1.1-2.5,2.5-2.5s2.5,1.1,2.5,2.5S218,276,216.6,276z M187.6,246c-6.9,0-12.5,5.6-12.5,12.5
			c0,6.9,5.6,12.5,12.5,12.5s12.5-5.6,12.5-12.5C200.1,251.6,194.5,246,187.6,246z M187.6,270c-6.3,0-11.5-5.2-11.5-11.5
			s5.2-11.5,11.5-11.5s11.5,5.2,11.5,11.5S194,270,187.6,270z M192.5,257.3l-6.4-4.1c-0.2-0.1-0.5-0.2-0.7-0.2
			c-0.7,0-1.3,0.6-1.3,1.4v8.2c0,1.1,1.1,1.8,2,1.2l6.4-4.1C193.3,259.1,193.3,257.8,192.5,257.3z M192,258.8l-6.4,4.1l0,0
			c-0.1,0-0.1,0.1-0.1,0.1c-0.1,0-0.3-0.2-0.3-0.4v-8.2c0-0.3,0.2-0.4,0.3-0.4v-1l0,1c0.1,0,0.1,0,0.2,0l6.3,4.1
			c0.1,0.1,0.2,0.3,0.2,0.3C192.1,258.5,192.1,258.7,192,258.8z"/>
	</g>
</g>
</svg>
