<?xml version="1.0" encoding="utf-8"?>
<!-- Generator: Adobe Illustrator 24.2.1, SVG Export Plug-In . SVG Version: 6.00 Build 0)  -->
<svg version="1.1" id="Layer_1" xmlns="http://www.w3.org/2000/svg" xmlns:xlink="http://www.w3.org/1999/xlink" x="0px" y="0px"
	 viewBox="0 0 24 20" style="enable-background:new 0 0 24 20;" xml:space="preserve">
<style type="text/css">
	.st0{fill:#4A4A4A;}
	.st1{fill:#797E8D;}
	.st2{fill:none;}
	.st3{fill:#C73431;}
	.st4{fill:#1362E8;}
</style>
<path class="st4" d="M20,7.4c0,0.3-0.3,0.4-0.6,0.4H18v1.6c0,0.3-0.2,0.4-0.5,0.4S17,9.7,17,9.5V7.9h-1.6c-0.3,0-0.4-0.2-0.4-0.4
	c0-0.3,0.2-0.5,0.5-0.5H17V5.5C17,5.2,17.2,5,17.5,5S18,5.2,18,5.5v1.5h1.5C19.8,6.9,20,7.2,20,7.4z M7,6.9C7,5.2,8.4,4,10,4
	s3,1.2,3,2.9s-1.3,3-3,3S7,8.6,7,6.9z M7.8,6.9c0,1.2,1,2.2,2.2,2.2s2.2-1,2.2-2.2s-1-2.1-2.2-2.1S7.8,5.7,7.8,6.9z M15,15.4v-1.6
	c0-1.1-0.9-1.9-2-1.9H7c-1.1,0-2,0.9-2,2v1.6c0,0,0,0.5-0.5,0.5C4,15.9,4,15.4,4,15.4V14c0-1.7,1.3-3,3-3h6c1.7,0,3,1.3,3,3v1.4
	c0,0,0,0.5-0.5,0.5C15,15.9,15,15.4,15,15.4z"/>
</svg>
