<?xml version="1.0" encoding="utf-8"?>
<!-- Generator: Adobe Illustrator 26.0.1, SVG Export Plug-In . SVG Version: 6.00 Build 0)  -->
<svg version="1.1" id="Icon_delete" xmlns="http://www.w3.org/2000/svg" xmlns:xlink="http://www.w3.org/1999/xlink" x="0px"
	 y="0px" viewBox="0 0 24 24" style="enable-background:new 0 0 24 24;" xml:space="preserve">
<style type="text/css">
	.st0{fill:#afafaf;}
</style>
<path class="st0" d="M18.5,6.1h-1.3h-2.1c-0.1-0.5-0.2-0.9-0.5-1.3c-0.6-0.7-1.5-1.1-2.4-1c0,0,0,0-0.1,0c-0.9,0-1.7,0.3-2.4,0.9
	C9.2,5.1,9,5.6,8.9,6.1H6.7H5.5C5.2,6.1,5,6.3,5,6.6s0.2,0.5,0.5,0.5h0.8l0.8,11.4c0,0.3,0.2,0.5,0.5,0.5h8.5c0.3,0,0.5-0.2,0.5-0.5
	l1.1-11.4h0.8c0.3,0,0.5-0.2,0.5-0.5S18.8,6.1,18.5,6.1z M10.3,5.3c0.5-0.4,1-0.6,1.6-0.6h0c0.6,0,1.3,0.2,1.7,0.7
	C13.9,5.6,14,5.9,14,6.1H10C10,5.8,10.1,5.6,10.3,5.3z M15.6,18H8L7.3,7.1h9.4L15.6,18z M13,16.5v-7C13,9.2,13.2,9,13.5,9
	S14,9.2,14,9.5v7c0,0.3-0.2,0.5-0.5,0.5S13,16.8,13,16.5z M10,16.5v-7C10,9.2,10.2,9,10.5,9S11,9.2,11,9.5v7c0,0.3-0.2,0.5-0.5,0.5
	S10,16.8,10,16.5z"/>
</svg>
