<svg width="12" height="14" viewBox="0 0 12 14" fill="none" xmlns="http://www.w3.org/2000/svg">
<style type="text/css">
	.st0{fill:#1362E8;}
</style>
<path class="st0" d="M10.5 0H1.5C0.899999 0 0.399999 0.3 0.199999 0.8C-0.100001 1.3 -1.07288e-06 1.9 0.299999 2.4L4 6.6V11.6C4 12.3 4.4 13 5.2 13.1C5.4 13.1 5.5 13 5.6 12.9L7.8 11.1C7.9 11 8 10.9 8 10.7V6.8L11.7 2.5C12 2 12.1 1.4 11.8 0.9C11.6 0.3 11.1 0 10.5 0ZM10.9 1.8L7.1 6.3C7 6.3 7 6.4 7 6.5V10.4C7 10.4 5.4 11.7 5.1 11.9C5 11.8 5 11.6 5 11.5V6.4C5 6.3 5 6.2 4.9 6.1L1.1 1.8C0.999999 1.6 0.999999 1.4 1.1 1.3C1.1 1.1 1.3 1 1.5 1H10.5C10.7 1 10.9 1.1 10.9 1.3C11 1.4 11 1.6 10.9 1.8Z" fill="#4A4A4A"/>
</svg>
