<?xml version="1.0" encoding="utf-8"?>
<!-- Generator: Adobe Illustrator 24.2.1, SVG Export Plug-In . SVG Version: 6.00 Build 0)  -->
<svg version="1.1" id="Layer_1" xmlns="http://www.w3.org/2000/svg" xmlns:xlink="http://www.w3.org/1999/xlink" x="0px" y="0px"
	 viewBox="0 0 20 20" style="enable-background:new 0 0 20 20;" xml:space="preserve">
<style type="text/css">
	.st0{fill:#4A4A4A;}
	.st1{fill:#797E8D;}
	.st2{fill:none;}
	.st3{fill:#C73431;}
</style>
<path class="st1" d="M10,13c-0.1,0-0.3,0-0.4-0.1l-3.2-3c-0.2-0.2-0.2-0.5,0-0.7C6.6,9,6.9,9,7.1,9.2l2.9,2.3l7-6.7
	c0.2-0.2,0.5-0.2,0.7,0s0.2,0.5,0,0.7l-7.4,7.3C10.3,12.9,10.1,13,10,13z M15,6V5c0-0.6-0.4-1-1-1H4C3.4,4,3,4.4,3,5v10
	c0,0.6,0.4,1,1,1h10c0.6,0,1-0.4,1-1v-3h-1v3H4V5h10v1H15z"/>
</svg>
