<?xml version="1.0" encoding="utf-8"?>
<!-- Generator: Adobe Illustrator 24.2.1, SVG Export Plug-In . SVG Version: 6.00 Build 0)  -->
<svg version="1.1" id="Layer_1" xmlns="http://www.w3.org/2000/svg" xmlns:xlink="http://www.w3.org/1999/xlink" x="0px" y="0px"
	 viewBox="0 0 24 24" style="enable-background:new 0 0 24 24;" xml:space="preserve">
<style type="text/css">
	.st0{fill:#5900d3;}
</style>
<g id="Layer_1_1_">
	<path class="st0" d="M10,8c1.1,0,2,0.9,2,2s-0.9,2-2,2s-2-0.9-2-2S8.9,8,10,8 M10,7c-1.7,0-3,1.3-3,3s1.3,3,3,3s2.9-1.4,2.9-3
		S11.7,7,10,7L10,7z"/>
</g>
<g id="Layer_3">
	<path class="st0" d="M7.2,14.2l-0.5,0.5l-1,1l-1.4-1.4l1-1l0.5-0.5L5.1,11H4.3H3V9h1.3H5l0.8-1.8L5.3,6.7l-1-1l1.4-1.4l1,1l0.5,0.5
		L9,5.1V4.3V3h2v1.3V5l1.8,0.7l0.5-0.5l1-1l1.4,1.4l-1,1l-0.5,0.5l0,0h1.4L16.9,6c0.1-0.1,0.1-0.3,0-0.4l-2.4-2.4
		c-0.1-0.1-0.2-0.1-0.2-0.1c-0.1,0-0.1,0-0.2,0.1l-1.4,1.4c-0.2-0.1-0.4-0.1-0.6-0.2v-2C12,2.1,11.9,2,11.7,2H8.3C8.1,2,8,2.1,8,2.3
		v2C7.8,4.4,7.6,4.5,7.4,4.6L6,3.1C5.9,3,5.7,3.1,5.6,3.2L3.1,5.5C3,5.7,3,5.9,3.1,6l1.4,1.4C4.4,7.6,4.4,7.8,4.3,8h-2
		C2.1,8,2,8.1,2,8.3v3.4C2,11.9,2.1,12,2.3,12h2c0.1,0.2,0.1,0.4,0.2,0.6L3.1,14c-0.1,0.1-0.1,0.3,0,0.4l2.4,2.4
		c0.1,0.1,0.1,0.1,0.2,0.1s0.1,0,0.2-0.1l1.2-1.2L7.2,14.2z"/>
</g>
<g id="Layer_2_1_">
	<path class="st0" d="M17.5,9L9,17.5V20h2.5l8.5-8.5L17.5,9z M11.1,19H10v-1.1l7.5-7.5l1.1,1.1L11.1,19z"/>
	<path class="st0" d="M20.7,6.3l1.1,1.1c0.4,0.4,0.4,1,0,1.4l-1.1,1.1l0,0l-2.5-2.5l0,0l1.1-1.1C19.6,5.9,20.3,5.9,20.7,6.3z"/>
</g>
</svg>
