<?xml version="1.0" encoding="utf-8"?>
<!-- Generator: Adobe Illustrator 24.2.1, SVG Export Plug-In . SVG Version: 6.00 Build 0)  -->
<svg version="1.1" id="Layer_1" xmlns="http://www.w3.org/2000/svg" xmlns:xlink="http://www.w3.org/1999/xlink" x="0px" y="0px"
	 viewBox="0 0 24 24" style="enable-background:new 0 0 24 24;" xml:space="preserve">
<style type="text/css">
	.st0{fill:none;}
	.st1{fill:#5900d3;}
</style>
<g id="Subtraction_1">
	<path class="st0" d="M8.3,18C8.1,18,8,17.9,8,17.7l0,0v-2c-0.2-0.1-0.4-0.2-0.6-0.2L6,16.9c-0.1,0.1-0.3,0.1-0.4,0l0,0l-2.4-2.4
		C3,14.3,3,14.2,3.1,14l0,0l1.4-1.4c-0.1-0.2-0.2-0.4-0.2-0.6h-2C2.1,12,2,11.9,2,11.7l0,0V8.3C2,8.1,2.1,8,2.3,8l0,0h2
		c0.1-0.2,0.2-0.4,0.2-0.6L3.1,6C3,5.9,3,5.7,3.1,5.5l0,0l2.4-2.4C5.7,3,5.8,3,6,3.1l0,0l1.4,1.4c0.2,0,0.4-0.1,0.6-0.2v-2
		C8,2.1,8.1,2,8.3,2l0,0h3.4C11.9,2,12,2.1,12,2.3l0,0v2c0.2,0.1,0.4,0.2,0.6,0.2L14,3.1c0.1-0.1,0.3-0.1,0.4,0l0,0l2.4,2.4
		C17,5.7,17,5.8,16.9,6l0,0l-1.4,1.4c0.1,0.2,0.2,0.4,0.2,0.6h2C17.9,8,18,8.1,18,8.3l0,0v3.4c0,0.2-0.1,0.3-0.3,0.3l0,0h-2
		c-0.1,0.2-0.2,0.4-0.2,0.6l1.4,1.4c0.1,0.1,0.1,0.3,0,0.4l0,0l-2.4,2.4c-0.1,0.1-0.3,0.1-0.4,0l0,0l-1.4-1.4
		c-0.2,0.1-0.4,0.2-0.6,0.2v2c0,0.2-0.1,0.3-0.3,0.3l0,0L8.3,18L8.3,18z"/>
	<path class="st1" d="M11,17v-2l1.8-0.7l1.4,1.4l1.4-1.4l-1.4-1.4L15,11h2V9h-2l-0.7-1.8l1.4-1.4l-1.4-1.4l-1.4,1.4L11,5V3H9v2
		L7.2,5.8L5.8,4.3L4.3,5.8l1.4,1.4L5,9H3v2h2l0.7,1.8l-1.4,1.4l1.4,1.4l1.4-1.4L9,15v2H11 M11.7,18H8.3C8.1,18,8,17.9,8,17.7v-2
		c-0.2-0.1-0.4-0.1-0.6-0.2L6,16.9c-0.1,0.1-0.3,0.1-0.4,0l-2.4-2.4C3,14.3,3,14.1,3.1,14l1.4-1.4c-0.1-0.2-0.1-0.4-0.2-0.6h-2
		C2.1,12,2,11.9,2,11.7V8.3C2,8.1,2.1,8,2.3,8h2c0.1-0.2,0.1-0.4,0.2-0.6L3.1,6C3,5.9,3,5.7,3.1,5.5l2.4-2.4C5.7,3,5.9,3,6,3.1
		l1.4,1.4c0.2,0,0.4-0.1,0.6-0.2v-2C8,2.1,8.1,2,8.3,2h3.4C11.9,2,12,2.1,12,2.3v2c0.2,0.1,0.4,0.2,0.6,0.2L14,3.1
		c0.1-0.1,0.3-0.1,0.4,0l2.4,2.4C17,5.7,17,5.9,16.9,6l-1.4,1.4c0,0.1,0.1,0.2,0.1,0.3c0,0.1,0.1,0.2,0.1,0.3h2
		C17.9,8,18,8.1,18,8.3v3.4c0,0.2-0.1,0.3-0.3,0.3h-2c-0.1,0.2-0.1,0.4-0.2,0.6l1.4,1.4c0.1,0.1,0.1,0.3,0,0.4l-2.4,2.4
		c-0.1,0.1-0.3,0.1-0.4,0l-1.4-1.4c-0.2,0.1-0.4,0.1-0.6,0.2v2C12,17.9,11.9,18,11.7,18z"/>
</g>
<g>
	<path class="st1" d="M10,13c-1.7,0-3-1.3-3-3s1.3-3,3-3s3,1.3,3,3S11.7,13,10,13z M10,8c-1.1,0-2,0.9-2,2s0.9,2,2,2s2-0.9,2-2
		S11.1,8,10,8z"/>
</g>
</svg>
